<svg width="58" height="59" viewBox="0 0 58 59" fill="none" xmlns="http://www.w3.org/2000/svg">
<circle cx="29" cy="29.5977" r="28.5" stroke="url(#paint0_linear_194_75)"/>
<path fill-rule="evenodd" clip-rule="evenodd" d="M11.2504 27.3966C11.1222 27.4208 11.0055 27.4868 10.9183 27.5844C10.8312 27.682 10.7783 27.8059 10.768 27.937C10.7576 28.068 10.7903 28.199 10.8611 28.3097C10.9318 28.4205 11.0366 28.5048 11.1594 28.5498L20.1245 31.825L20.9085 41.2393C20.9179 41.3459 20.9554 41.4481 21.0172 41.5353C21.079 41.6226 21.1628 41.6916 21.2599 41.7354C21.3569 41.7791 21.4638 41.7959 21.5693 41.7841C21.6749 41.7722 21.7753 41.7321 21.8602 41.668L22.7308 41.0083L22.7425 41.0061L30.5212 35.0992L32.7011 39.8271C32.7437 39.9205 32.8095 40.0013 32.8919 40.0618C32.9744 40.1224 33.0708 40.1606 33.1721 40.173C33.2733 40.1853 33.3759 40.1712 33.47 40.1322C33.5641 40.0931 33.6467 40.0303 33.7097 39.9499C38.5305 33.8269 43.4647 27.7536 48.246 21.6001C48.3227 21.5044 48.3683 21.3872 48.3765 21.2643C48.3847 21.1415 48.3552 21.019 48.2919 20.9134C48.2287 20.8078 48.1348 20.7243 48.0229 20.6743C47.9111 20.6242 47.7867 20.61 47.6668 20.6335L11.2502 27.3954L11.2504 27.3966ZM13.6238 28.1765L41.4233 23.0146L20.8158 30.8056L13.6238 28.1765ZM45.9335 22.5897C41.7887 27.8854 37.5535 33.1441 33.3746 38.4387L29.0247 28.9835L45.9335 22.5897ZM27.2861 29.6396L26.6462 30.9546L21.9963 39.9619L21.3259 31.8961L27.2861 29.6396ZM28.3088 30.2748L28.3097 30.2795L30.0082 33.9739L24.6036 38.0814L24.128 38.4419L27.7106 31.5015C27.7122 31.4972 27.7139 31.4928 27.7154 31.4884L28.3088 30.2748Z" fill="url(#paint1_linear_194_75)"/>
<defs>
<linearGradient id="paint0_linear_194_75" x1="58" y1="0.597656" x2="0" y2="58.5977" gradientUnits="userSpaceOnUse">
<stop stop-color="#0064AC"/>
<stop offset="1" stop-color="#B8D6EC"/>
</linearGradient>
<linearGradient id="paint1_linear_194_75" x1="12.1782" y1="35.6611" x2="47.3034" y2="29.1391" gradientUnits="userSpaceOnUse">
<stop stop-color="#0064AC"/>
<stop offset="1" stop-color="#B8D6EC"/>
</linearGradient>
</defs>
</svg>
