<svg width="58" height="58" viewBox="0 0 58 58" fill="none" xmlns="http://www.w3.org/2000/svg">
<circle cx="29" cy="29" r="28.5" stroke="url(#paint0_linear_114_99)"/>
<g clip-path="url(#clip0_114_99)">
<path d="M35.6317 28.6202C36.0221 27.3221 36.1183 26.046 36.1366 24.9235C37.1325 24.9064 38.1818 24.8297 39.2365 24.5795C41.109 24.1352 42.7265 23.2118 44.1818 21.7568C44.4696 21.4689 44.6281 21.0866 44.6281 20.6796C44.6281 20.2726 44.4696 19.8901 44.1818 19.6025C43.8939 19.3147 43.5116 19.1562 43.1047 19.1562C42.7565 19.1562 42.4267 19.2724 42.1583 19.486L38.5138 15.8415C38.9882 15.2441 38.9501 14.3706 38.3979 13.8184C38.11 13.5305 37.7277 13.3721 37.3207 13.3721C36.9138 13.3721 36.5312 13.5305 36.2436 13.8184C34.9399 15.122 34.0691 16.5447 33.5808 18.1677C33.1904 19.4659 33.0942 20.742 33.0759 21.8645C32.0801 21.8816 31.0307 21.9582 29.9761 22.2085C28.1035 22.6528 26.4861 23.5762 25.0307 25.0312C23.5754 26.4865 22.6521 28.1042 22.208 29.9765C21.9577 31.0312 21.8813 32.0805 21.864 33.0764C20.7414 33.0947 19.4653 33.1909 18.1672 33.5813C16.5442 34.0696 15.1214 34.9404 13.8179 36.2441C13.53 36.532 13.3716 36.9143 13.3716 37.3212C13.3716 37.7282 13.53 38.1108 13.8179 38.3984C14.1147 38.6955 14.5049 38.8439 14.895 38.8439C15.2302 38.8439 15.5649 38.7336 15.8411 38.5143L19.4856 42.1588C19.2719 42.4271 19.1557 42.7572 19.1557 43.1051C19.1557 43.5121 19.3142 43.8947 19.602 44.1823C19.8989 44.4791 20.289 44.6278 20.6791 44.6278C21.0693 44.6278 21.4594 44.4794 21.7563 44.1823C23.2116 42.727 24.135 41.1093 24.579 39.237C24.8293 38.182 24.9059 37.1327 24.923 36.1366C27.5593 36.089 30.3373 35.6012 32.9693 32.9694C34.2727 31.666 35.1438 30.2433 35.6319 28.6203L35.6317 28.6202ZM39.9711 21.1134L36.8864 18.0287C37.1264 17.5431 37.4394 17.0577 37.8498 16.5692L41.4306 20.15C40.9438 20.5589 40.4594 20.8729 39.9711 21.1134ZM36.4911 19.025L38.974 21.5079C38.0641 21.785 37.1264 21.8646 36.1208 21.8793C36.134 20.899 36.2059 19.9564 36.4911 19.025ZM36.9393 14.5142C37.0411 14.4124 37.1766 14.3563 37.3207 14.3563C37.4647 14.3563 37.6002 14.4124 37.702 14.5142C37.9122 14.7245 37.9122 15.0667 37.702 15.2769C36.8392 16.1397 36.265 17.0081 35.8825 17.8729C35.8546 17.9166 35.8346 17.9637 35.8222 18.0125C35.2743 19.3204 35.1554 20.6192 35.1371 21.878C34.9701 21.8761 34.8012 21.8734 34.6298 21.8707C34.443 21.8678 34.2526 21.8648 34.0597 21.8629C34.0973 19.5811 34.4579 16.9954 36.9393 14.5141L36.9393 14.5142ZM20.1493 41.4311L16.5688 37.8506C17.057 37.4409 17.5426 37.1277 18.029 36.8879L21.113 39.9719C20.8722 40.46 20.5583 40.9444 20.1493 41.4312V41.4311ZM21.5073 38.9748L19.0253 36.4929C19.9558 36.208 20.8984 36.1347 21.8788 36.1215C21.8639 37.1269 21.7844 38.0649 21.5073 38.9748ZM14.5135 37.7028C14.4117 37.601 14.3556 37.4655 14.3556 37.3215C14.3556 37.1774 14.4117 37.0419 14.5135 36.9401C16.9947 34.4589 19.5804 34.098 21.8623 34.0607C21.8642 34.2538 21.8671 34.444 21.8701 34.6308C21.8728 34.8019 21.8754 34.9709 21.8774 35.1376C19.6675 35.1672 17.4907 35.4882 15.2762 37.7028C15.0659 37.913 14.7237 37.913 14.5135 37.7028ZM21.0604 43.4867C20.8502 43.697 20.5079 43.697 20.2977 43.4867C20.1959 43.3849 20.1397 43.2494 20.1397 43.1054C20.1397 42.9614 20.1959 42.8259 20.2977 42.724C21.1661 41.8556 21.7445 40.986 22.1283 40.1095C22.148 40.0751 22.1637 40.039 22.1744 40.0016C22.775 38.5705 22.8673 37.1213 22.8653 35.632C22.8653 35.6305 22.8656 35.6293 22.8656 35.6279C22.8656 35.6262 22.8653 35.6247 22.8653 35.623C22.8649 35.289 22.8597 34.953 22.8544 34.6149C22.8111 31.8383 22.7621 28.6914 25.7267 25.7268C28.3309 23.1225 31.0755 22.8437 33.5867 22.8437C33.9343 22.8437 34.2776 22.8491 34.6152 22.8542C36.4646 22.883 38.2466 22.9106 40.0015 22.1743C40.0388 22.1635 40.075 22.1479 40.1094 22.1281C40.9856 21.7444 41.8555 21.166 42.7239 20.2976C42.8257 20.1958 42.9612 20.1396 43.1052 20.1396C43.2493 20.1396 43.3848 20.1958 43.4866 20.2976C43.5884 20.3994 43.6446 20.5349 43.6446 20.6789C43.6446 20.823 43.5884 20.9585 43.4866 21.0603C40.522 24.0249 37.3753 23.976 34.5985 23.9326C32.6317 23.9021 30.741 23.8728 28.8783 24.7624C28.8417 24.7753 28.8063 24.7922 28.7728 24.8139C28.0084 25.1936 27.2486 25.7304 26.4899 26.4892C25.7308 27.2483 25.1938 28.0083 24.8141 28.7729C24.7926 28.8059 24.776 28.841 24.7631 28.8772C24.0277 30.417 23.9201 31.9755 23.9223 33.5805C23.9223 33.582 23.922 33.5835 23.922 33.5852C23.922 33.5871 23.9223 33.5888 23.9223 33.5906C23.9228 33.9243 23.9279 34.26 23.9333 34.5979C23.9765 37.375 24.0256 40.5222 21.0607 43.4866L21.0604 43.4867ZM25.3922 29.903L28.098 32.6088C27.058 32.988 26.0067 33.0773 24.9081 33.0922C24.9247 31.9626 25.024 30.9181 25.3922 29.903ZM29.0528 32.1718L25.828 28.9469C26.0887 28.4784 26.4227 28.0124 26.8468 27.5429L30.4578 31.1539C29.9874 31.5785 29.5201 31.9116 29.0528 32.1718ZM31.1536 30.4582L27.5426 26.8471C28.0121 26.423 28.4781 26.0891 28.9466 25.8283L32.1722 29.0539C31.9119 29.5204 31.5787 29.9875 31.1536 30.4582ZM32.6092 28.0993L29.9026 25.3927C30.9178 25.0243 31.9622 24.9252 33.0918 24.9086C33.0769 26.007 32.9891 27.0581 32.6092 28.0993ZM24.9248 35.1531C24.9226 34.9599 24.9199 34.7698 24.917 34.5827C24.9143 34.4116 24.9116 34.2429 24.9097 34.0759C27.1204 34.0461 29.2962 33.7253 31.5109 31.5107C32.2658 30.7558 32.8 29.9965 33.1782 29.2392C33.2077 29.1965 33.2302 29.1504 33.2448 29.1023C33.9184 27.6838 34.0563 26.2731 34.0762 24.9094C34.2431 24.9116 34.4121 24.914 34.5835 24.9167C34.7702 24.9196 34.9604 24.9226 35.1535 24.9245C35.1162 27.2063 34.7554 29.792 32.2742 32.2733C29.7847 34.7623 27.2007 35.1163 24.9248 35.1529L24.9248 35.1531Z" fill="url(#paint1_linear_114_99)"/>
</g>
<defs>
<linearGradient id="paint0_linear_114_99" x1="58" y1="0" x2="0" y2="58" gradientUnits="userSpaceOnUse">
<stop stop-color="#0064AC"/>
<stop offset="1" stop-color="#B8D6EC"/>
</linearGradient>
<linearGradient id="paint1_linear_114_99" x1="13.872" y1="29.5" x2="45" y2="29.5" gradientUnits="userSpaceOnUse">
<stop stop-color="#0064AC"/>
<stop offset="1" stop-color="#B8D6EC"/>
</linearGradient>
<clipPath id="clip0_114_99">
<rect width="32" height="32" fill="white" transform="translate(13 13)"/>
</clipPath>
</defs>
</svg>
