<svg width="58" height="58" viewBox="0 0 58 58" fill="none" xmlns="http://www.w3.org/2000/svg">
<circle cx="29" cy="29" r="28.5" stroke="url(#paint0_linear_114_79)"/>
<path d="M40.3787 43.0469C42.3212 40.4071 42.9932 37.8363 42.3703 35.4047C41.2247 30.9287 36.153 28.5801 35.9372 28.4824C35.9213 28.4748 35.9045 28.476 35.8884 28.4711C35.8621 28.4629 35.8368 28.455 35.8096 28.4525C35.7852 28.4501 35.7623 28.4525 35.7385 28.4544C35.7123 28.4568 35.6869 28.4596 35.6613 28.4675C35.6384 28.4745 35.618 28.4849 35.5966 28.4962C35.5734 28.5084 35.5514 28.5203 35.5304 28.5368C35.5102 28.5529 35.4941 28.5722 35.4773 28.5923C35.466 28.6057 35.451 28.6149 35.4416 28.6301C35.3903 28.7113 34.8761 29.5362 34.3805 30.7795L32.6163 27.863L32.6166 15.8598C33.0905 15.6438 33.4222 15.1683 33.4222 14.6144V14.2336C33.4222 13.478 32.807 12.863 32.0517 12.863H24.2462C23.4906 12.863 22.8756 13.4783 22.8756 14.2336V14.6144C22.8756 15.1686 23.208 15.6444 23.6825 15.8605V18.0623L23.6822 18.0642L23.6825 18.066V20.8574L23.6822 20.8592L23.6825 20.8611V23.6525L23.6822 23.6543L23.6825 23.6561V26.4475L23.6822 26.4494L23.6825 26.4512V27.8626L17.6565 37.8259C16.8154 39.3771 16.8514 41.2072 17.7529 42.7212C18.6541 44.2346 20.2438 45.1379 22.0056 45.1379H34.29C36.0411 45.1379 37.6304 44.2315 38.5264 42.749C38.8685 42.9117 39.2277 43.0643 39.6037 43.2071L39.9922 44.4376C40.0453 44.6057 40.2003 44.7128 40.3676 44.7128C40.4069 44.7128 40.4466 44.707 40.486 44.6948C40.6929 44.6292 40.8082 44.4079 40.7429 44.2007L40.3787 43.0469ZM41.6089 35.6034C42.132 37.6514 41.6159 39.8353 40.0812 42.1042L39.4363 40.0614C39.4577 39.9986 39.4665 39.9339 39.4556 39.8704L40.9652 36.218C41.0483 36.0172 40.953 35.7871 40.7519 35.7041C40.5517 35.6214 40.321 35.716 40.238 35.9174L39.0429 38.8084C39.0127 38.6943 38.9764 38.5832 38.9422 38.4876L38.9343 38.4635L38.9318 38.4644L38.2513 36.3075C38.2727 36.2446 38.2815 36.1802 38.2705 36.1171L39.4363 33.2961C39.5193 33.0949 39.4241 32.8651 39.223 32.7821C39.0231 32.6994 38.7921 32.7943 38.7091 32.9955L37.8564 35.0576L36.9894 32.3098C36.9241 32.1028 36.7025 31.9878 36.4953 32.0528C36.2884 32.1184 36.173 32.3397 36.2384 32.5469L37.0755 35.2007L35.3024 34.0703C35.1199 33.9543 34.8761 34.0077 34.7592 34.1912C34.6423 34.3743 34.6963 34.6178 34.8798 34.7344L37.4444 36.3695L38.2599 38.955L35.7282 37.3409C35.5457 37.2241 35.3019 37.2781 35.185 37.4615C35.0681 37.6446 35.1221 37.8878 35.3049 38.0047L38.6286 40.1235L39.2951 42.2353C36.8503 41.1803 35.2701 39.6575 34.5991 37.6964C33.4296 34.2815 35.3208 30.4531 35.9278 29.3605C37.0356 29.94 40.7156 32.1058 41.6089 35.6034ZM22.8237 33.5611L22.8808 33.598C23.6483 34.0943 24.5214 34.3375 25.3909 34.3375C26.5106 34.3375 27.6239 33.9337 28.4967 33.144C29.5782 32.1658 31.1523 31.8858 32.5067 32.4308L32.8772 32.5797L33.5641 33.704C33.3548 35.0425 33.3648 36.5134 33.8543 37.945C34.3524 39.4013 35.2875 40.6336 36.6427 41.6343C36.1388 42.4598 35.2636 42.9533 34.291 42.9533H22.0058C21.0222 42.9533 20.1366 42.4488 19.6355 41.6016C19.1353 40.7658 19.1066 39.7547 19.547 38.9191L22.8237 33.5611ZM23.663 14.233C23.663 13.9113 23.9248 13.6498 24.2462 13.6498H32.0519C32.3736 13.6498 32.6351 13.9116 32.6351 14.233V14.6138C32.6351 14.9315 32.3794 15.19 32.0632 15.1961H24.2343C23.9185 15.19 23.6627 14.9318 23.6627 14.6138L23.663 14.233ZM34.2903 44.3502H22.0059C20.524 44.3502 19.1873 43.5906 18.4296 42.318C17.6716 41.0451 17.6413 39.5058 18.3396 38.2171L24.4132 28.1756C24.4507 28.1143 24.4702 28.0438 24.4702 27.9718V26.842H27.1299C27.3474 26.842 27.5235 26.6659 27.5235 26.4483C27.5235 26.2307 27.3474 26.0547 27.1299 26.0547L24.4699 26.055V24.0469H27.1295C27.3471 24.0469 27.5232 23.8708 27.5232 23.6532C27.5232 23.4356 27.3471 23.2596 27.1295 23.2596H24.4699V21.2515H27.1295C27.3471 21.2515 27.5232 21.0754 27.5232 20.8578C27.5232 20.6402 27.3471 20.4642 27.1295 20.4642H24.4699V18.4561H27.1295C27.3471 18.4561 27.5232 18.28 27.5232 18.0624C27.5232 17.8448 27.3471 17.6687 27.1295 17.6687L24.4699 17.6691V15.9836H31.8302V27.9719C31.8302 28.0439 31.8497 28.1141 31.8872 28.1757L34.0378 31.7317C33.9511 32.0005 33.8702 32.2828 33.7961 32.5736L33.4805 32.0573C33.4729 32.045 33.461 32.038 33.4521 32.0264C33.4354 32.0045 33.4177 31.984 33.396 31.9657C33.3746 31.948 33.3527 31.9343 33.3285 31.9218C33.3154 31.9147 33.3066 31.9038 33.2922 31.8983L32.8003 31.7002C31.1685 31.0431 29.2715 31.381 27.9681 32.5599C26.6811 33.7241 24.765 33.8786 23.3078 32.9365L22.9123 32.681L22.9083 32.6795C22.9065 32.6783 22.9053 32.6759 22.9031 32.6749C22.875 32.6582 22.8442 32.652 22.8143 32.6426C22.7966 32.6371 22.7804 32.6267 22.7627 32.6237C22.727 32.6179 22.6919 32.6221 22.6565 32.6255C22.6419 32.627 22.6275 32.6243 22.6129 32.6273C22.5763 32.6356 22.5433 32.653 22.5101 32.6713C22.4988 32.6777 22.4859 32.6798 22.475 32.6874C22.4438 32.7088 22.4194 32.7387 22.395 32.7692C22.3868 32.7799 22.3749 32.7857 22.3675 32.7976L22.3663 32.8001C22.3651 32.8019 22.3627 32.8031 22.3617 32.8052L18.862 38.5297C18.2797 39.6323 18.316 40.9314 18.9581 42.0042C19.6017 43.0912 20.7403 43.74 22.005 43.74H34.2901C35.5264 43.74 36.6385 43.119 37.2909 42.0768C37.4603 42.183 37.6361 42.2855 37.8164 42.3853C37.0575 43.6024 35.7436 44.3502 34.2903 44.3502Z" fill="url(#paint1_linear_114_79)"/>
<defs>
<linearGradient id="paint0_linear_114_79" x1="58" y1="0" x2="0" y2="58" gradientUnits="userSpaceOnUse">
<stop stop-color="#0064AC"/>
<stop offset="1" stop-color="#B8D6EC"/>
</linearGradient>
<linearGradient id="paint1_linear_114_79" x1="17.2727" y1="29.0001" x2="42.7272" y2="29.0001" gradientUnits="userSpaceOnUse">
<stop stop-color="#0064AC"/>
<stop offset="1" stop-color="#B8D6EC"/>
</linearGradient>
</defs>
</svg>
