<svg width="58" height="58" viewBox="0 0 58 58" fill="none" xmlns="http://www.w3.org/2000/svg">
<circle cx="29" cy="29" r="28.5" stroke="url(#paint0_linear_113_47)"/>
<path d="M47.6966 27.7268C43.4069 26.3874 40.1208 22.9164 39.0177 18.5598V18.5352C39.0096 18.5086 38.9968 18.4833 38.9805 18.4608C38.9702 18.4381 38.9561 18.4172 38.9392 18.3987C38.9215 18.3778 38.9007 18.3596 38.8773 18.3451C38.8594 18.3275 38.8382 18.3134 38.8151 18.3038C38.7918 18.291 38.7668 18.2814 38.7408 18.275H35.8559H35.8563C35.8265 18.2779 35.7973 18.2846 35.7694 18.2955C35.7431 18.3044 35.7181 18.3169 35.6951 18.3326C35.6784 18.3384 35.6633 18.3467 35.6496 18.3573C34.8235 19.0241 33.9269 19.5977 32.9755 20.0684C31.7521 20.6859 30.407 21.0246 29.037 21.0602H29.0079C28.9915 21.0586 28.9749 21.0586 28.9585 21.0602C26.702 21.0602 24.4455 20.1716 22.1602 18.349L22.1147 18.3243H22.1144C22.0903 18.3079 22.0641 18.2954 22.0359 18.2871C22.0096 18.2759 21.9817 18.2688 21.9532 18.2666H19.0686L18.9901 18.2954C18.9683 18.3054 18.9488 18.3195 18.9321 18.3368L18.8661 18.3906C18.8504 18.4098 18.8366 18.4307 18.8248 18.4525L18.7876 18.5268V18.5515C16.8121 25.9907 10.3778 27.7012 10.3154 27.7185C10.1264 27.7652 9.99564 27.9373 10.0014 28.1318V32.8432C10.0014 32.9528 10.045 33.0579 10.1222 33.1354C10.1998 33.213 10.3049 33.2566 10.4144 33.2566H18.7628V39.3317C18.7628 39.4413 18.8063 39.5467 18.8839 39.624C18.9614 39.7015 19.0665 39.7451 19.1761 39.7451H21.8956C22.0052 39.7451 22.1103 39.7015 22.1879 39.624C22.2654 39.5467 22.309 39.4413 22.309 39.3317V33.2566H35.4922V39.3317C35.4922 39.4413 35.5358 39.5467 35.613 39.624C35.6906 39.7015 35.7957 39.7451 35.9053 39.7451H38.6248C38.7344 39.7451 38.8395 39.7015 38.917 39.624C38.9946 39.5467 39.0381 39.4413 39.0381 39.3317V33.2566H47.5973C47.7072 33.2566 47.8123 33.213 47.8895 33.1354C47.9671 33.0579 48.0107 32.9528 48.0107 32.8432V28.1277C48.0107 27.938 47.8808 27.7723 47.6966 27.7268ZM36.3188 38.9183V33.2563H38.2116V38.9183H36.3188ZM10.8153 32.4298V31.4791H47.1839V32.4295L10.8153 32.4298ZM19.5894 38.9183V33.2563H21.4822V38.9183H19.5894ZM21.4822 30.6529H19.5894V19.0807H21.4822V30.6529ZM38.2116 30.6529H36.3188V19.0807H38.2116V30.6529ZM35.4921 30.6529H33.5458V20.6926C34.2248 20.3443 34.8756 19.9438 35.4924 19.4939L35.4921 30.6529ZM32.7191 30.6529H29.4128V21.846C30.5513 21.7774 31.6693 21.5147 32.7191 21.0689V30.6529ZM28.5864 30.6529H25.2801V21.1471C26.3331 21.5707 27.4521 21.8069 28.5864 21.8456V30.6529ZM24.4534 30.6529H22.3087V19.4942C22.9842 19.9889 23.7019 20.4231 24.4534 20.7919V30.6529ZM47.1835 30.6529H43.8775V26.7968C44.8987 27.4966 46.0113 28.0528 47.1838 28.4498L47.1835 30.6529ZM43.0508 26.1934V30.6529H39.038V21.0683C39.939 23.0775 41.3166 24.8364 43.0508 26.1931V26.1934ZM18.7622 21.0812V30.6526H14.9477V26.1063C16.5944 24.7525 17.9012 23.0311 18.7622 21.0809V21.0812ZM14.1213 26.7308V30.6529H10.8151V28.4335C11.993 28.0272 13.1065 27.454 14.1213 26.7307V26.7308Z" fill="url(#paint1_linear_113_47)"/>
<defs>
<linearGradient id="paint0_linear_113_47" x1="58" y1="0" x2="0" y2="58" gradientUnits="userSpaceOnUse">
<stop stop-color="#0064AC"/>
<stop offset="1" stop-color="#B8D6EC"/>
</linearGradient>
<linearGradient id="paint1_linear_113_47" x1="10" y1="29" x2="48" y2="29" gradientUnits="userSpaceOnUse">
<stop stop-color="#0064AC"/>
<stop offset="1" stop-color="#B8D6EC"/>
</linearGradient>
</defs>
</svg>
