<svg width="58" height="58" viewBox="0 0 58 58" fill="none" xmlns="http://www.w3.org/2000/svg">
<circle cx="29" cy="29" r="28.5" fill="#FAFAFA" stroke="url(#paint0_linear_115_131)"/>
<mask id="mask0_115_131" style="mask-type:luminance" maskUnits="userSpaceOnUse" x="11" y="16" width="36" height="28">
<path d="M11 16.2985H47V43.8803H11V16.2985Z" fill="white"/>
</mask>
<g mask="url(#mask0_115_131)">
<path d="M21.5131 33.9351H19.6483L20.206 31.4713C20.2297 31.3666 20.2046 31.2567 20.1376 31.1732C20.0706 31.0892 19.969 31.0403 19.8618 31.0403H17.5496C17.3871 31.0403 17.2456 31.1512 17.2068 31.3089L16.0423 36.0409C16.0164 36.1461 16.0406 36.2575 16.1071 36.3429C16.1741 36.4283 16.2765 36.4782 16.3851 36.4782H18.1025V40.8401C18.1025 41.0056 18.2172 41.1485 18.3791 41.1845C18.4048 41.1904 18.4305 41.1929 18.4559 41.1929C18.5904 41.1929 18.7166 41.1156 18.7755 40.9891L21.833 34.4373C21.8841 34.3279 21.8754 34.2001 21.8107 34.0985C21.7459 33.9966 21.6337 33.9351 21.5131 33.9351ZM18.8084 39.249V36.1253C18.8084 35.9305 18.6504 35.7725 18.4556 35.7725H16.8356L17.8267 31.7462H19.4208L18.8631 34.2099C18.8394 34.3146 18.8645 34.4246 18.9315 34.5081C18.9985 34.5921 19.1001 34.6409 19.2073 34.6409H20.9594L18.8084 39.249ZM46.6482 19.9103H44.9076V17.6672C44.9076 16.9265 44.3047 16.3232 43.5634 16.3232C42.8221 16.3232 42.2194 16.9261 42.2194 17.6672V19.9103H40.2734V17.6672C40.2734 16.9265 39.6704 16.3232 38.9293 16.3232C38.1886 16.3232 37.5853 16.9261 37.5853 17.6672V19.9103H35.8448C35.6496 19.9103 35.4919 20.0683 35.4919 20.2631C35.4919 22.8274 37.1784 25.0032 39.5002 25.7448V28.1369C39.5002 28.3318 39.6579 28.4898 39.853 28.4898H40.8589V36.0426H26.8972V32.4182C26.8972 29.9597 24.8973 27.96 22.4391 27.96L15.4601 27.9597C13.0016 27.9597 11.0015 29.9599 11.0015 32.4182V39.3974C11.0015 41.8559 13.0016 43.8561 15.4601 43.8561H22.4393C24.8978 43.8561 26.8975 41.8559 26.8975 39.3974V36.7485H41.2122C41.4073 36.7485 41.565 36.5905 41.565 36.3957V28.4899H42.7092C42.9043 28.4899 43.062 28.3319 43.062 28.1371V25.7196C45.3474 24.9573 47.0015 22.8016 47.0015 20.2633C47.0015 20.0685 46.8433 19.9103 46.6482 19.9103ZM26.1912 39.3969C26.1912 41.4661 24.5078 43.1495 22.4389 43.1495L15.4597 43.1498C13.3906 43.1498 11.7072 41.4664 11.7072 39.3972L11.7069 32.4177C11.7069 30.3489 13.3903 28.6655 15.4594 28.6655H22.4386C24.5075 28.6655 26.1909 30.3489 26.1909 32.4177L26.1912 39.3969ZM42.9254 17.6666C42.9254 17.3149 43.2115 17.0288 43.5632 17.0288C43.9151 17.0288 44.2015 17.3149 44.2015 17.6666V19.9097H42.9254L42.9254 17.6666ZM38.2913 17.6666C38.2913 17.3149 38.5774 17.0288 38.9291 17.0288C39.2811 17.0288 39.5669 17.3149 39.5669 17.6666V19.9097H38.2911L38.2913 17.6666ZM42.3554 27.784H40.2058V25.9186C40.5438 25.9806 40.8905 26.0177 41.2461 26.0177C41.6255 26.0177 41.9961 25.9784 42.3554 25.9083V27.784ZM41.2464 25.3118C40.8132 25.3118 40.395 25.2518 39.9937 25.1488C39.9834 25.144 39.9713 25.144 39.9605 25.1404C37.908 24.5986 36.3615 22.7986 36.2099 20.6158H46.283C46.1007 23.2362 43.9117 25.3118 41.2464 25.3118Z" fill="url(#paint1_linear_115_131)"/>
</g>
<defs>
<linearGradient id="paint0_linear_115_131" x1="58" y1="0" x2="0" y2="58" gradientUnits="userSpaceOnUse">
<stop stop-color="#0064AC"/>
<stop offset="1" stop-color="#B8D6EC"/>
</linearGradient>
<linearGradient id="paint1_linear_115_131" x1="11.0015" y1="30.9987" x2="46.5015" y2="30.9987" gradientUnits="userSpaceOnUse">
<stop stop-color="#0064AC"/>
<stop offset="1" stop-color="#B8D6EC"/>
</linearGradient>
</defs>
</svg>
