<svg width="58" height="58" viewBox="0 0 58 58" fill="none" xmlns="http://www.w3.org/2000/svg">
<circle cx="29" cy="29" r="28.5" stroke="url(#paint0_linear_113_48)"/>
<path d="M34.0223 22.5057C34.0008 26.1207 31.8141 29.5196 28.7619 31.3598H29.2816C26.835 29.9962 25.2765 27.5715 24.6702 24.9088C24.0424 22.1599 24.4537 19.2588 25.9908 16.8777C26.8351 15.5789 27.9607 14.4963 29.2813 13.6954H28.7616C31.9654 15.492 34.0004 18.8476 34.0223 22.5057C34.0223 23.1552 35.0398 23.1552 35.0398 22.5057C35.0183 18.5008 32.8101 14.7773 29.3031 12.8291C29.1517 12.7425 28.9567 12.7425 28.7834 12.8291C26.1855 14.3878 24.2805 16.9642 23.6312 19.9297C22.9817 22.9171 23.5446 26.2508 25.1899 28.8268C26.0774 30.234 27.2897 31.403 28.7616 32.2257C28.913 32.3123 29.108 32.3123 29.2813 32.2257C32.6369 30.1907 35.0179 26.4672 35.0398 22.5053C35.0398 21.8561 34.0223 21.8561 34.0223 22.5053V22.5057Z" fill="url(#paint1_linear_113_48)"/>
<path d="M28.4587 17.4397V20.1672V26.6833V34.563V41.3823C28.4587 42.4864 28.4154 43.6119 28.4587 44.6946V44.7379C28.4587 45.3875 29.4762 45.3875 29.4762 44.7379V42.0104V35.4943V27.6146V20.7953C29.4762 19.6912 29.5195 18.5656 29.4762 17.483V17.4397C29.4762 16.7905 28.4587 16.7905 28.4587 17.4397Z" fill="url(#paint2_linear_113_48)"/>
<path d="M23.1984 32.6798C25.7531 33.3293 27.7662 35.4724 28.5239 37.9619C28.5672 37.7887 28.6105 37.6373 28.6538 37.4641C25.7964 40.4948 20.5142 40.1483 17.7861 37.1395C17.05 36.3385 16.5307 35.3644 16.2057 34.3469C16.1623 34.5201 16.119 34.6715 16.0757 34.8447C17.8942 32.896 20.6002 32.0517 23.1982 32.6798C23.8259 32.8312 24.1072 31.8571 23.458 31.7057C20.5139 30.9913 17.4182 31.9222 15.3399 34.1085C15.21 34.2385 15.1452 34.4332 15.21 34.6064C15.8595 36.6847 17.2883 38.5031 19.2148 39.5421C21.2713 40.6462 23.8474 40.906 26.0774 40.2132C27.3328 39.8234 28.4588 39.1309 29.3678 38.1782C29.4978 38.0483 29.5625 37.8536 29.4978 37.6803C28.6317 34.8662 26.3587 32.4415 23.458 31.7054C22.8302 31.5325 22.5704 32.5066 23.1982 32.6798L23.1984 32.6798Z" fill="url(#paint3_linear_113_48)"/>
<path d="M20.102 36.1002C22.5482 36.7064 25.0162 37.3123 27.4623 37.9186C27.8088 38.0052 28.1767 38.0918 28.5232 38.1784C29.1509 38.3298 29.4322 37.3556 28.783 37.2042C26.3368 36.598 23.8687 35.9921 21.4226 35.3858C21.0762 35.2992 20.7083 35.2126 20.3618 35.126C19.734 34.9742 19.4742 35.9484 20.102 36.1002Z" fill="url(#paint4_linear_113_48)"/>
<path d="M34.5414 31.7061C31.6621 32.4638 29.3892 34.8667 28.5016 37.6811C28.4583 37.8543 28.5016 38.049 28.6315 38.1789C31.8787 41.6212 37.9188 41.2529 40.9928 37.7892C41.8155 36.8802 42.4 35.7975 42.7679 34.6069C42.8112 34.4336 42.7679 34.2389 42.638 34.109C40.5815 31.9009 37.4643 30.9915 34.5417 31.7061C33.914 31.8575 34.1738 32.8317 34.8015 32.6803C37.3994 32.0526 40.1052 32.8968 41.9236 34.8234C41.8803 34.6502 41.837 34.4988 41.7937 34.3256C41.2307 36.144 39.9753 37.7245 38.3082 38.6335C36.5115 39.6292 34.2382 39.8242 32.2899 39.2398C31.1643 38.9152 30.1682 38.2874 29.3458 37.4432C29.3891 37.6164 29.4324 37.7678 29.4757 37.941C30.2334 35.4515 32.2465 33.33 34.8012 32.6589C35.4293 32.5072 35.1698 31.5329 34.5417 31.7061L34.5414 31.7061Z" fill="url(#paint5_linear_113_48)"/>
<path d="M37.6377 35.1265C35.1915 35.7327 32.7234 36.3386 30.2773 36.9449C29.9309 37.0315 29.5629 37.1181 29.2165 37.2047C28.5887 37.3561 28.8486 38.3303 29.4763 38.1789C31.9225 37.5727 34.3905 36.9668 36.8367 36.3605C37.1831 36.2739 37.551 36.1873 37.8975 36.1007C38.5252 35.9489 38.2654 34.9747 37.6377 35.1265Z" fill="url(#paint6_linear_113_48)"/>
<defs>
<linearGradient id="paint0_linear_113_48" x1="58" y1="0" x2="0" y2="58" gradientUnits="userSpaceOnUse">
<stop stop-color="#0064AC"/>
<stop offset="1" stop-color="#B8D6EC"/>
</linearGradient>
<linearGradient id="paint1_linear_113_48" x1="23.5011" y1="24.6361" x2="34.9196" y2="24.6361" gradientUnits="userSpaceOnUse">
<stop stop-color="#0064AC"/>
<stop offset="1" stop-color="#B8D6EC"/>
</linearGradient>
<linearGradient id="paint2_linear_113_48" x1="28.4515" y1="34.142" x2="29.4846" y2="34.142" gradientUnits="userSpaceOnUse">
<stop stop-color="#0064AC"/>
<stop offset="1" stop-color="#B8D6EC"/>
</linearGradient>
<linearGradient id="paint3_linear_113_48" x1="15.3484" y1="37.0184" x2="29.3756" y2="37.0184" gradientUnits="userSpaceOnUse">
<stop stop-color="#0064AC"/>
<stop offset="1" stop-color="#B8D6EC"/>
</linearGradient>
<linearGradient id="paint4_linear_113_48" x1="19.849" y1="36.9852" x2="29.0559" y2="36.9852" gradientUnits="userSpaceOnUse">
<stop stop-color="#0064AC"/>
<stop offset="1" stop-color="#B8D6EC"/>
</linearGradient>
<linearGradient id="paint5_linear_113_48" x1="28.6488" y1="37.0084" x2="42.637" y2="37.0084" gradientUnits="userSpaceOnUse">
<stop stop-color="#0064AC"/>
<stop offset="1" stop-color="#B8D6EC"/>
</linearGradient>
<linearGradient id="paint6_linear_113_48" x1="28.9634" y1="36.9857" x2="38.1612" y2="36.9857" gradientUnits="userSpaceOnUse">
<stop stop-color="#0064AC"/>
<stop offset="1" stop-color="#B8D6EC"/>
</linearGradient>
</defs>
</svg>
