<svg width="58" height="58" viewBox="0 0 58 58" fill="none" xmlns="http://www.w3.org/2000/svg">
<circle cx="29" cy="29" r="28.5" fill="#FAFAFA" stroke="url(#paint0_linear_115_113)"/>
<path d="M43.2135 13.2787H24.9481C24.6676 13.2787 24.4408 13.5058 24.4408 13.7861V31.3708C24.0166 31.1442 23.6893 31.037 23.4262 31.037C23.0402 31.037 22.6041 31.2474 22.0565 31.6979C21.6268 32.0458 21.1192 32.5491 20.5505 33.1823C19.6398 32.4841 18.3415 31.6815 16.8086 31.2862C16.1669 31.1218 15.5009 31.2248 14.9327 31.5755C14.3564 31.9307 13.9428 32.5164 13.797 33.1838C13.4591 34.7626 13.1139 37.7391 13.3685 42.931C13.2741 43.0705 13.2509 43.2485 13.3169 43.4081C13.3957 43.598 13.581 43.7213 13.7859 43.7213H43.2139C43.4944 43.7213 43.7212 43.4945 43.7212 43.214V13.786C43.7215 13.5058 43.4944 13.2784 43.2139 13.2784L43.2135 13.2787ZM25.4553 14.2936H42.7062V39.6624H39.1545V37.6329H40.6767C40.9572 37.6329 41.184 37.406 41.184 37.1256V34.0814C41.184 33.801 40.9572 33.5741 40.6767 33.5741H38.1399V31.0373C38.1399 30.7568 37.9131 30.53 37.6326 30.53H31.544C31.2636 30.53 31.0367 30.7568 31.0367 31.0373V33.5741H28.4999C28.2428 33.5741 28.0394 33.7677 28.0059 34.0155C27.9337 33.9543 27.8602 33.8919 27.7897 33.8329C27.7136 33.7692 27.6411 33.7093 27.5673 33.6481C27.4797 33.5754 27.3919 33.5024 27.3073 33.4329C27.2378 33.3757 27.1706 33.3216 27.1031 33.2667C27.0187 33.1982 26.9349 33.1303 26.8538 33.0653C26.7909 33.0149 26.7297 32.9666 26.6688 32.9183C26.5867 32.8533 26.5056 32.7896 26.4266 32.7282C26.3714 32.6854 26.3173 32.6438 26.2639 32.6028C26.1836 32.5411 26.1051 32.4817 26.0283 32.4241C25.9792 32.3873 25.9303 32.3508 25.8825 32.3155C25.805 32.2581 25.7297 32.2035 25.6557 32.1504C25.6139 32.1204 25.5716 32.09 25.5308 32.0613C25.5064 32.0441 25.4802 32.0245 25.4563 32.0079L25.4553 14.2936ZM37.1246 39.6624H33.0655V37.6329H38.1395V39.6624H37.1246ZM31.0363 39.6624H26.9772V37.6329H32.0512V39.6624H31.0363ZM29.0068 35.1059V34.5885H34.0805V36.618H29.0065L29.0068 35.1059ZM38.647 36.618H35.0953V34.5885H40.169V36.618H38.647ZM37.1248 33.5739H32.0512V31.5444H37.1248V33.5739ZM14.7886 33.3984C14.8767 32.9946 15.1172 32.6536 15.4654 32.4391C15.6947 32.2974 15.951 32.2251 16.2096 32.2251C16.3252 32.2251 16.4415 32.2395 16.556 32.2692C17.901 32.6159 19.0579 33.3233 19.8842 33.9497C17.8731 36.3362 15.5676 39.6544 14.3264 41.492C14.1965 37.2575 14.4959 34.7702 14.7887 33.3987L14.7886 33.3984ZM24.4405 40.1698V42.7066H14.8273C14.8472 42.6764 14.8668 42.6467 14.8877 42.6153C14.9315 42.549 14.9763 42.4811 15.0237 42.4096C15.0687 42.3416 15.1173 42.2686 15.1657 42.1961C15.2178 42.1175 15.2694 42.0402 15.325 41.9566C15.3809 41.873 15.4411 41.7834 15.5003 41.695C15.5798 41.5762 15.6617 41.4551 15.7468 41.3287C15.8296 41.2061 15.9129 41.0825 16.0005 40.9536C16.0589 40.8677 16.1206 40.7776 16.1811 40.6892C16.2516 40.586 16.322 40.4828 16.3948 40.3765C16.4595 40.2824 16.5262 40.1857 16.5927 40.0892C16.667 39.9815 16.7423 39.8727 16.8185 39.7627C16.8855 39.6665 16.953 39.5693 17.0212 39.4717C17.103 39.3546 17.1861 39.236 17.27 39.1172C17.3374 39.0212 17.4047 38.9256 17.4731 38.8289C17.5693 38.6929 17.6673 38.556 17.7652 38.4187C17.8221 38.3389 17.8782 38.2599 17.9356 38.1798C18.089 37.9663 18.2441 37.7521 18.4001 37.5383C18.4437 37.4786 18.4878 37.4192 18.5316 37.3596C18.6502 37.1982 18.7687 37.037 18.8881 36.8769C18.9435 36.8026 18.9989 36.7291 19.0545 36.6554C19.163 36.5108 19.2715 36.3671 19.3798 36.2248C19.4379 36.1485 19.4958 36.073 19.554 35.9975C19.6635 35.8552 19.7725 35.7147 19.8813 35.576C19.9349 35.5075 19.9888 35.4388 20.0422 35.3711C20.1633 35.218 20.2834 35.0687 20.403 34.9214C20.4423 34.8731 20.4818 34.8235 20.5208 34.7759C20.6812 34.58 20.8398 34.3894 20.9956 34.2071C20.9959 34.2069 20.9959 34.2066 20.9961 34.2064C21.65 33.4513 22.2371 32.8564 22.6971 32.4837C23.2175 32.0567 23.4175 32.0517 23.4258 32.0517C23.4545 32.0517 23.7324 32.0701 24.665 32.6962C25.4732 33.2393 26.5631 34.1044 27.9921 35.3375V36.618H26.47C26.1895 36.618 25.9626 36.8449 25.9626 37.1253V39.6622H24.948C24.6675 39.6624 24.4404 39.8892 24.4404 40.1697L24.4405 40.1698ZM25.4553 40.6772H30.529V42.7067H25.4553V40.6772ZM31.5439 40.6772H36.6176V42.7067H31.5439V40.6772ZM42.7059 42.7067H37.6322V40.6772H42.7059V42.7067Z" fill="url(#paint1_linear_115_113)"/>
<path d="M29.0068 23.4262H39.1543C39.4348 23.4262 39.6616 23.1991 39.6616 22.9189V17.8452C39.6616 17.565 39.4348 17.3379 39.1543 17.3379H29.0068C28.7264 17.3379 28.4995 17.565 28.4995 17.8452V22.9189C28.4993 23.1991 28.7264 23.4262 29.0068 23.4262ZM29.5141 18.3525H38.6472V22.4116H29.5141V18.3525Z" fill="url(#paint2_linear_115_113)"/>
<path d="M27.4849 29.0072H40.6765C40.957 29.0072 41.1838 28.7801 41.1838 28.4999V24.9482C41.1838 24.668 40.957 24.4409 40.6765 24.4409H27.4849C27.2044 24.4409 26.9775 24.668 26.9775 24.9482V28.4999C26.9775 28.7801 27.2044 29.0072 27.4849 29.0072ZM40.1692 27.9924H37.1251V25.4556H40.1692V27.9924ZM36.1102 27.9924H32.0511V25.4556H36.1102V27.9924ZM27.9923 25.4556H31.0364V27.9924H27.9923V25.4556Z" fill="url(#paint3_linear_115_113)"/>
<path d="M23.9331 34.5882C23.9331 34.3078 23.7062 34.0809 23.4258 34.0809H22.9184C22.638 34.0809 22.4111 34.3078 22.4111 34.5882C22.4111 34.8687 22.638 35.0956 22.9184 35.0956H23.4258C23.7062 35.0958 23.9331 34.8687 23.9331 34.5882Z" fill="url(#paint4_linear_115_113)"/>
<path d="M19.1736 39.7026C19.1076 39.7277 19.0568 39.7635 19.0062 39.8091C18.9143 39.9052 18.8589 40.0377 18.8589 40.1693C18.8589 40.3061 18.9095 40.4329 19.0059 40.5296C19.1021 40.6258 19.229 40.6767 19.3662 40.6767C19.4322 40.6767 19.4979 40.6613 19.5591 40.6361C19.62 40.6109 19.6754 40.5752 19.7265 40.5296C19.8227 40.4329 19.8735 40.3013 19.8735 40.1693C19.8735 40.0377 19.8176 39.9052 19.7265 39.8091C19.5842 39.6671 19.3559 39.6212 19.1736 39.7026Z" fill="url(#paint5_linear_115_113)"/>
<path d="M21.6802 38.7339C21.65 38.7135 21.6193 38.6982 21.5891 38.6883C21.5584 38.673 21.5282 38.6632 21.4924 38.6576C21.4315 38.6428 21.3607 38.6428 21.2948 38.6576C21.2646 38.6632 21.2338 38.673 21.2036 38.6883C21.1729 38.6982 21.1427 38.7135 21.112 38.7339C21.0868 38.7493 21.0614 38.7744 21.0362 38.7948C20.9906 38.8454 20.9549 38.8963 20.9297 38.9623C20.899 39.0232 20.8892 39.0892 20.8892 39.1551C20.8892 39.2918 20.9398 39.4187 21.0362 39.5154C21.1321 39.6113 21.259 39.6624 21.3962 39.6624C21.5329 39.6624 21.6598 39.6113 21.7565 39.5154C21.8021 39.4643 21.8378 39.4087 21.863 39.3477C21.8882 39.2868 21.9035 39.2208 21.9035 39.1549C21.9035 39.0889 21.8882 39.0232 21.863 38.962C21.8378 38.896 21.8021 38.8452 21.7565 38.7946C21.7311 38.7744 21.7054 38.7493 21.6802 38.7339Z" fill="url(#paint6_linear_115_113)"/>
<path d="M24.4404 37.6331H23.9331C23.6526 37.6331 23.4258 37.8599 23.4258 38.1404C23.4258 38.4208 23.6526 38.6477 23.9331 38.6477H24.4404C24.7209 38.6477 24.9477 38.4208 24.9477 38.1404C24.948 37.8599 24.7209 37.6331 24.4404 37.6331Z" fill="url(#paint7_linear_115_113)"/>
<path d="M22.4111 40.6771H21.3965C21.116 40.6771 20.8892 40.904 20.8892 41.1844C20.8892 41.4649 21.116 41.6918 21.3965 41.6918H22.4111C22.6916 41.6918 22.9184 41.4649 22.9184 41.1844C22.9184 40.9042 22.6913 40.6771 22.4111 40.6771Z" fill="url(#paint8_linear_115_113)"/>
<path d="M25.9624 36.1106H26.4697C26.7502 36.1106 26.977 35.8837 26.977 35.6033C26.977 35.3228 26.7502 35.0959 26.4697 35.0959H25.9624C25.6819 35.0959 25.4551 35.3228 25.4551 35.6033C25.4551 35.8837 25.6819 36.1106 25.9624 36.1106Z" fill="url(#paint9_linear_115_113)"/>
<path d="M21.396 37.1251C21.6765 37.1251 21.9033 36.8983 21.9033 36.6178C21.9033 36.3373 21.6765 36.1105 21.396 36.1105H20.8887C20.6082 36.1105 20.3813 36.3373 20.3813 36.6178C20.3813 36.8983 20.6082 37.1251 20.8887 37.1251H21.396Z" fill="url(#paint10_linear_115_113)"/>
<defs>
<linearGradient id="paint0_linear_115_113" x1="58" y1="0" x2="0" y2="58" gradientUnits="userSpaceOnUse">
<stop stop-color="#0064AC"/>
<stop offset="1" stop-color="#B8D6EC"/>
</linearGradient>
<linearGradient id="paint1_linear_115_113" x1="13.5" y1="28.5" x2="44" y2="28.5" gradientUnits="userSpaceOnUse">
<stop stop-color="#0064AC"/>
<stop offset="1" stop-color="#B8D6EC"/>
</linearGradient>
<linearGradient id="paint2_linear_115_113" x1="28.5804" y1="20.3821" x2="39.7639" y2="20.3821" gradientUnits="userSpaceOnUse">
<stop stop-color="#0064AC"/>
<stop offset="1" stop-color="#B8D6EC"/>
</linearGradient>
<linearGradient id="paint3_linear_115_113" x1="27.0805" y1="26.7241" x2="41.3139" y2="26.7241" gradientUnits="userSpaceOnUse">
<stop stop-color="#0064AC"/>
<stop offset="1" stop-color="#B8D6EC"/>
</linearGradient>
<linearGradient id="paint4_linear_115_113" x1="22.4222" y1="34.5883" x2="23.947" y2="34.5883" gradientUnits="userSpaceOnUse">
<stop stop-color="#0064AC"/>
<stop offset="1" stop-color="#B8D6EC"/>
</linearGradient>
<linearGradient id="paint5_linear_115_113" x1="18.8662" y1="40.1696" x2="19.8828" y2="40.1696" gradientUnits="userSpaceOnUse">
<stop stop-color="#0064AC"/>
<stop offset="1" stop-color="#B8D6EC"/>
</linearGradient>
<linearGradient id="paint6_linear_115_113" x1="20.8965" y1="39.1545" x2="21.9128" y2="39.1545" gradientUnits="userSpaceOnUse">
<stop stop-color="#0064AC"/>
<stop offset="1" stop-color="#B8D6EC"/>
</linearGradient>
<linearGradient id="paint7_linear_115_113" x1="23.4368" y1="38.1404" x2="24.9617" y2="38.1404" gradientUnits="userSpaceOnUse">
<stop stop-color="#0064AC"/>
<stop offset="1" stop-color="#B8D6EC"/>
</linearGradient>
<linearGradient id="paint8_linear_115_113" x1="20.9039" y1="41.1844" x2="22.937" y2="41.1844" gradientUnits="userSpaceOnUse">
<stop stop-color="#0064AC"/>
<stop offset="1" stop-color="#B8D6EC"/>
</linearGradient>
<linearGradient id="paint9_linear_115_113" x1="25.4661" y1="35.6033" x2="26.991" y2="35.6033" gradientUnits="userSpaceOnUse">
<stop stop-color="#0064AC"/>
<stop offset="1" stop-color="#B8D6EC"/>
</linearGradient>
<linearGradient id="paint10_linear_115_113" x1="20.3924" y1="36.6178" x2="21.9172" y2="36.6178" gradientUnits="userSpaceOnUse">
<stop stop-color="#0064AC"/>
<stop offset="1" stop-color="#B8D6EC"/>
</linearGradient>
</defs>
</svg>
