<svg width="58" height="59" viewBox="0 0 58 59" fill="none" xmlns="http://www.w3.org/2000/svg">
<circle cx="29" cy="29.0977" r="28.5" stroke="url(#paint0_linear_31_124)"/>
<path d="M26.3125 21.5278C25.1437 21.5278 24.1875 22.4841 24.1875 23.6528C24.1875 24.8216 25.1437 25.7778 26.3125 25.7778C27.4813 25.7778 28.4375 24.8216 28.4375 23.6528C28.4375 22.4841 27.4813 21.5278 26.3125 21.5278ZM26.3125 24.7153C25.675 24.7153 25.25 24.2903 25.25 23.6528C25.25 23.0153 25.675 22.5903 26.3125 22.5903C26.95 22.5903 27.375 23.0153 27.375 23.6528C27.375 24.2903 26.95 24.7153 26.3125 24.7153Z" fill="url(#paint1_linear_31_124)"/>
<path d="M32.6875 25.7778C33.8563 25.7778 34.8125 24.8216 34.8125 23.6528C34.8125 22.4841 33.8563 21.5278 32.6875 21.5278C31.5187 21.5278 30.5625 22.4841 30.5625 23.6528C30.5625 24.8216 31.5187 25.7778 32.6875 25.7778ZM32.6875 22.5903C33.325 22.5903 33.75 23.0153 33.75 23.6528C33.75 24.2903 33.325 24.7153 32.6875 24.7153C32.05 24.7153 31.625 24.2903 31.625 23.6528C31.625 23.0153 32.05 22.5903 32.6875 22.5903Z" fill="url(#paint2_linear_31_124)"/>
<path d="M42.25 42.2466V36.6154C42.8875 36.0841 43.3125 35.2341 43.3125 34.2779C43.3125 32.4716 41.9312 31.0904 40.125 31.0904H37.8937C37.6812 30.4529 37.0438 30.0279 36.4062 30.0279H31.625V27.9029H33.2188C35.2375 27.9029 36.9375 26.2029 36.9375 24.1841V23.1216C36.9375 21.1029 35.2375 19.4029 33.2188 19.4029H30.0312V17.1716C30.6687 16.9591 31.0938 16.3216 31.0938 15.6841C31.0938 14.8341 30.35 14.0904 29.5 14.0904C28.65 14.0904 27.9062 14.8341 27.9062 15.6841C27.9062 16.4279 28.3313 16.9591 28.9688 17.1716V19.4029H25.7812C23.7625 19.4029 22.0625 21.1029 22.0625 23.1216V24.1841C22.0625 26.2029 23.7625 27.9029 25.7812 27.9029H27.375V30.0279H22.5938C21.85 30.0279 21.3188 30.4529 21.1063 31.0904H18.875C17.0687 31.0904 15.6875 32.4716 15.6875 34.2779C15.6875 35.2341 16.1125 36.0841 16.75 36.6154V42.2466C16.1125 42.7779 15.6875 43.5216 15.6875 44.3716C15.6875 44.6904 15.9 44.9029 16.2188 44.9029C16.5375 44.9029 16.75 44.6904 16.75 44.3716C16.75 43.5216 17.4937 42.7779 18.3438 42.7779C19.1937 42.7779 19.9375 43.5216 19.9375 44.3716C19.9375 44.6904 20.15 44.9029 20.4688 44.9029C20.7875 44.9029 21 44.6904 21 44.3716C21 43.5216 20.575 42.7779 19.9375 42.2466V37.4654H21V41.1841C21 42.0341 21.7438 42.7779 22.5938 42.7779H36.4062C37.2563 42.7779 38 42.0341 38 41.1841V37.4654H39.0625V42.2466C38.425 42.7779 38 43.5216 38 44.3716C38 44.6904 38.2125 44.9029 38.5312 44.9029C38.85 44.9029 39.0625 44.6904 39.0625 44.3716C39.0625 43.5216 39.8062 42.7779 40.6562 42.7779C41.5063 42.7779 42.25 43.5216 42.25 44.3716C42.25 44.6904 42.4625 44.9029 42.7812 44.9029C43.1 44.9029 43.3125 44.6904 43.3125 44.3716C43.3125 43.5216 42.8875 42.7779 42.25 42.2466ZM29.5 15.1529C29.8188 15.1529 30.0312 15.3654 30.0312 15.6841C30.0312 16.0029 29.8188 16.2154 29.5 16.2154C29.1812 16.2154 28.9688 16.0029 28.9688 15.6841C28.9688 15.3654 29.1812 15.1529 29.5 15.1529ZM23.125 24.1841V23.1216C23.125 21.6341 24.2937 20.4654 25.7812 20.4654H33.2188C34.7062 20.4654 35.875 21.6341 35.875 23.1216V24.1841C35.875 25.6716 34.7062 26.8404 33.2188 26.8404H25.7812C24.2937 26.8404 23.125 25.6716 23.125 24.1841ZM28.4375 27.9029H30.5625V30.0279H28.4375V27.9029ZM18.875 41.8216C18.6625 41.8216 18.5563 41.7154 18.3438 41.7154C18.1312 41.7154 18.025 41.7154 17.8125 41.8216V37.3591C17.9188 37.3591 17.9187 37.3591 18.025 37.4654C18.1312 37.4654 18.2375 37.4654 18.2375 37.5716C18.45 37.5716 18.6625 37.6779 18.875 37.6779V41.8216ZM19.4062 36.4029H18.875C18.6625 36.4029 18.45 36.4029 18.2375 36.2966H18.1313C17.9188 36.1904 17.7063 36.0841 17.6 35.9779C17.0688 35.5529 16.75 35.0216 16.75 34.2779C16.75 33.1091 17.7062 32.1529 18.875 32.1529H21V36.4029H19.4062ZM36.9375 41.1841C36.9375 41.5029 36.725 41.7154 36.4062 41.7154H22.5938C22.275 41.7154 22.0625 41.5029 22.0625 41.1841V31.6216C22.0625 31.3029 22.275 31.0904 22.5938 31.0904H36.4062C36.725 31.0904 36.9375 31.3029 36.9375 31.6216V41.1841ZM38 32.1529H40.125C41.2938 32.1529 42.25 33.1091 42.25 34.2779C42.25 35.0216 41.9313 35.5529 41.4 35.9779C41.1875 36.0841 40.975 36.1904 40.8688 36.2966H40.7625C40.55 36.4029 40.3375 36.4029 40.125 36.4029H38V32.1529ZM40.125 41.8216V37.4654C40.3375 37.4654 40.55 37.4654 40.7625 37.3591C40.8687 37.3591 40.975 37.3591 40.975 37.2529C41.0812 37.2529 41.0812 37.2529 41.1875 37.1466V41.6091C40.975 41.6091 40.8687 41.5029 40.6562 41.5029C40.4438 41.5029 40.3375 41.7154 40.125 41.8216Z" fill="url(#paint3_linear_31_124)"/>
<defs>
<linearGradient id="paint0_linear_31_124" x1="58" y1="0.0976562" x2="0" y2="58.0977" gradientUnits="userSpaceOnUse">
<stop stop-color="#0064AC"/>
<stop offset="1" stop-color="#B8D6EC"/>
</linearGradient>
<linearGradient id="paint1_linear_31_124" x1="21.1328" y1="23.6528" x2="39.9167" y2="23.6528" gradientUnits="userSpaceOnUse">
<stop stop-color="#0064AC"/>
<stop offset="1" stop-color="#B8D6EC"/>
</linearGradient>
<linearGradient id="paint2_linear_31_124" x1="21.1328" y1="23.6528" x2="39.9168" y2="23.6528" gradientUnits="userSpaceOnUse">
<stop stop-color="#0064AC"/>
<stop offset="1" stop-color="#B8D6EC"/>
</linearGradient>
<linearGradient id="paint3_linear_31_124" x1="21.1328" y1="29.4966" x2="39.9167" y2="29.4966" gradientUnits="userSpaceOnUse">
<stop stop-color="#0064AC"/>
<stop offset="1" stop-color="#B8D6EC"/>
</linearGradient>
</defs>
</svg>
