<svg width="58" height="59" viewBox="0 0 58 59" fill="none" xmlns="http://www.w3.org/2000/svg">
<circle cx="29" cy="29.8938" r="28.5" stroke="url(#paint0_linear_194_65)"/>
<path d="M27.4123 9.79279V9.79561H27.3515C26.3152 9.82388 25.4415 10.6013 25.2944 11.629L25.0711 13.1839C23.1624 13.6235 21.3405 14.3783 19.6803 15.4173L18.422 14.4759C18.0095 14.1686 17.5002 14.0199 16.9871 14.0567C16.4741 14.0936 15.9913 14.3136 15.6269 14.6766L13.3847 16.9199C13.0221 17.2845 12.8024 17.767 12.7653 18.2797C12.7282 18.7925 12.8762 19.3015 13.1825 19.7145L14.1198 20.9669C13.0767 22.6293 12.3189 24.4544 11.8776 26.3666L10.3365 26.5858C9.82712 26.6606 9.36153 26.9158 9.02447 27.305C8.68742 27.6941 8.5013 28.1913 8.5 28.7061V31.8809C8.5 32.9382 9.2889 33.8457 10.3365 33.9956L11.8874 34.2189C12.3286 36.1315 13.0807 37.9507 14.1212 39.6144L13.1811 40.8697C12.8739 41.2827 12.7251 41.7922 12.762 42.3056C12.7988 42.819 13.0188 43.3022 13.3818 43.6671L15.6241 45.9033C16.3734 46.6525 17.5709 46.7444 18.4192 46.1097L19.669 45.1739C21.3332 46.2163 23.16 46.973 25.0739 47.413L25.2944 48.9566C25.4443 50.0054 26.3534 50.7942 27.4123 50.7928H30.5849C31.0988 50.7901 31.5947 50.6034 31.9827 50.2666C32.3707 49.9297 32.6252 49.4649 32.6999 48.9566L32.9233 47.4045C34.8352 46.9633 36.66 46.2061 38.3226 45.164L39.4352 45.9994C40.3683 46.6977 41.6831 46.6002 42.506 45.7761L44.6182 43.6671C44.9812 43.3022 45.2012 42.819 45.238 42.3056C45.2749 41.7922 45.1261 41.2827 44.8189 40.8697L43.883 39.6201C44.9251 37.9574 45.682 36.1324 46.1224 34.2203L47.4811 34.0224C48.0412 33.9404 48.5532 33.6599 48.9238 33.2321C49.2944 32.8042 49.4989 32.2575 49.5 31.6915V28.7047C49.4987 28.1899 49.3126 27.6927 48.9755 27.3035C48.6385 26.9144 48.1729 26.6592 47.6635 26.5843L46.1083 26.361C45.6688 24.4526 44.9138 22.631 43.8745 20.9711L44.7058 19.8587C45.0428 19.4053 45.2058 18.846 45.1653 18.2826C45.1249 17.7192 44.8836 17.189 44.4853 16.7884L42.3745 14.6794C42.0105 14.316 41.5279 14.0955 41.0148 14.0581C40.5017 14.0207 39.9923 14.169 39.5794 14.4759L38.3296 15.4116C36.6645 14.3691 34.8367 13.6123 32.9219 13.1726L32.7268 11.8142C32.6455 11.2546 32.366 10.7428 31.9392 10.3718C31.5124 10.0008 30.9666 9.79538 30.4011 9.79279H27.4137H27.4123ZM27.3897 11.2092H30.3997C30.8719 11.2092 31.2621 11.5484 31.3271 12.0149L31.6509 14.2539L32.14 14.3487C34.2508 14.7657 36.2584 15.5954 38.0454 16.7941L38.4625 17.0726L40.4234 15.6053C40.5632 15.4993 40.7369 15.4479 40.9119 15.4609C41.0868 15.474 41.251 15.5504 41.3735 15.676L43.4857 17.7864C43.6472 17.9445 43.7454 18.1562 43.7618 18.3816C43.7782 18.607 43.7117 18.8307 43.5748 19.0105L42.2105 20.8298L42.489 21.2468C43.6854 23.0308 44.5162 25.0342 44.9334 27.1413L45.0296 27.6318L47.4656 27.9823C47.8275 28.0346 48.0876 28.3343 48.0862 28.7004V31.6873C48.0862 32.1594 47.7497 32.5509 47.2832 32.6188L45.0437 32.9411L44.9462 33.4302C44.5286 35.5404 43.6963 37.5469 42.4975 39.3331L42.219 39.7487L43.6879 41.7136C43.7934 41.8527 43.8444 42.0256 43.8314 42.1997C43.8183 42.3739 43.7422 42.5373 43.6172 42.6592L41.5064 44.7711C41.3473 44.9317 41.1351 45.029 40.9095 45.0446C40.6839 45.0602 40.4604 44.9931 40.2807 44.8559L38.4597 43.4932L38.0426 43.7717C36.2571 44.9685 34.2518 45.7992 32.1429 46.2157L31.6509 46.3147L31.3031 48.7446C31.2794 48.9179 31.1935 49.0767 31.0613 49.1914C30.9292 49.3061 30.7598 49.3689 30.5849 49.3679H27.4123C27.2368 49.3695 27.0668 49.3071 26.9341 49.1924C26.8013 49.0776 26.715 48.9184 26.6913 48.7446L26.3463 46.326L25.8543 46.2284C23.744 45.8099 21.7377 44.9768 19.9517 43.7773L19.5347 43.4989L17.5737 44.9675C17.4341 45.0738 17.2605 45.1253 17.0856 45.1126C16.9106 45.0998 16.7464 45.0236 16.6237 44.8983L14.3814 42.6522C14.2562 42.5299 14.1801 42.3662 14.1673 42.1917C14.1546 42.0173 14.2061 41.8442 14.3121 41.7051L15.7867 39.7402L15.5082 39.3232C14.312 37.5382 13.4816 35.5338 13.0651 33.4259L12.9676 32.934L10.5359 32.5834C10.3633 32.5642 10.2041 32.4814 10.0891 32.3514C9.97416 32.2213 9.91167 32.0531 9.91379 31.8795V28.7047C9.91379 28.3371 10.1725 28.0389 10.5359 27.9866L12.9563 27.6388L13.0538 27.1469C13.4724 25.037 14.3057 23.031 15.5053 21.2454L15.7839 20.8312L14.3149 18.8678C14.2091 18.7285 14.1578 18.5553 14.1708 18.3808C14.1839 18.2064 14.2603 18.0427 14.3856 17.9207L16.6265 15.6788C16.749 15.5543 16.9126 15.4785 17.0868 15.4655C17.261 15.4525 17.4341 15.5032 17.5737 15.6081L19.5431 17.081L19.9574 16.8026C21.7422 15.6085 23.746 14.7798 25.8529 14.3642L26.3435 14.2681L26.6913 11.8368C26.7141 11.6665 26.7971 11.51 26.9251 11.3955C27.0532 11.2809 27.2179 11.2159 27.3897 11.212V11.2092ZM29 15.4498C20.8113 15.4498 14.158 22.1048 14.158 30.2921C14.158 38.4794 20.8113 45.1315 29 45.1315C37.1887 45.1315 43.842 38.4794 43.842 30.2921C43.842 22.1048 37.1887 15.4498 29 15.4498ZM29 16.8634C30.764 16.8622 32.5109 17.2088 34.1407 17.8833C35.7706 18.5578 37.2515 19.547 38.4987 20.7942C39.7458 22.0415 40.7349 23.5223 41.4091 25.152C42.0834 26.7818 42.4297 28.5284 42.4282 30.2921C42.4297 32.0556 42.0834 33.8021 41.4091 35.4317C40.7348 37.0613 39.7457 38.5419 38.4985 39.7889C37.2513 41.0359 35.7704 42.0248 34.1405 42.699C32.5107 43.3732 30.7638 43.7195 29 43.718C27.2362 43.7195 25.4893 43.3732 23.8595 42.699C22.2296 42.0248 20.7487 41.0359 19.5015 39.7889C18.2543 38.5419 17.2652 37.0613 16.5909 35.4317C15.9166 33.8021 15.5703 32.0556 15.5718 30.2921C15.5718 22.8681 21.5748 16.8634 29 16.8634ZM29 18.2769C22.3721 18.2769 16.9828 23.6654 16.9828 30.2921C16.9828 36.9202 22.3721 42.3072 29 42.3072C35.6279 42.3072 41.0172 36.9202 41.0172 30.2921C41.0172 23.6654 35.6279 18.2769 29 18.2769ZM29 19.6905C34.8644 19.6905 39.6034 24.4287 39.6034 30.2921C39.6034 36.1555 34.8644 40.8937 29 40.8937C27.6071 40.8952 26.2276 40.622 24.9405 40.0897C23.6533 39.5575 22.4838 38.7766 21.4989 37.7919C20.514 36.8071 19.733 35.6378 19.2007 34.3509C18.6683 33.064 18.3951 31.6847 18.3966 30.2921C18.3966 24.4287 23.1356 19.6905 29 19.6905ZM29 21.104C23.9344 21.104 19.8132 25.2273 19.8132 30.2921C19.8162 32.7272 20.785 35.0618 22.5072 36.7837C24.2295 38.5056 26.5644 39.4743 29 39.4773C31.4356 39.4743 33.7705 38.5056 35.4928 36.7837C37.215 35.0618 38.1838 32.7272 38.1868 30.2921C38.1868 25.2273 34.0656 21.104 29 21.104ZM29 22.5176C30.0213 22.5164 31.0328 22.7168 31.9766 23.1071C32.9203 23.4975 33.7778 24.0702 34.4999 24.7923C35.2219 25.5145 35.7944 26.3721 36.1844 27.3158C36.5745 28.2595 36.7745 29.2709 36.773 30.2921C36.7745 31.3131 36.5745 32.3244 36.1844 33.2679C35.7943 34.2115 35.2218 35.0689 34.4997 35.7908C33.7776 36.5128 32.9201 37.0852 31.9764 37.4752C31.0326 37.8653 30.0212 38.0653 29 38.0638C27.9788 38.0653 26.9674 37.8653 26.0236 37.4752C25.0799 37.0852 24.2224 36.5128 23.5003 35.7908C22.7782 35.0689 22.2057 34.2115 21.8156 33.2679C21.4255 32.3244 21.2255 31.3131 21.227 30.2921C21.227 25.9906 24.6992 22.5176 29 22.5176Z" fill="url(#paint1_linear_194_65)"/>
<defs>
<linearGradient id="paint0_linear_194_65" x1="58" y1="0.893829" x2="0" y2="58.8938" gradientUnits="userSpaceOnUse">
<stop stop-color="#0064AC"/>
<stop offset="1" stop-color="#B8D6EC"/>
</linearGradient>
<linearGradient id="paint1_linear_194_65" x1="8.5" y1="30.2921" x2="45.9655" y2="30.2921" gradientUnits="userSpaceOnUse">
<stop stop-color="#0064AC"/>
<stop offset="1" stop-color="#B8D6EC"/>
</linearGradient>
</defs>
</svg>
