<svg width="58" height="58" viewBox="0 0 58 58" fill="none" xmlns="http://www.w3.org/2000/svg">
<circle cx="29" cy="29" r="28.5" fill="#FAFAFA" stroke="url(#paint0_linear_112_25)"/>
<path d="M25.0085 28.7464C24.8298 28.5676 24.5392 28.5676 24.3604 28.7464L21.1365 31.9694C21.0504 32.0555 21.0027 32.172 21.0027 32.2939C21.0027 32.4158 21.0513 32.5322 21.1365 32.6184L24.3604 35.8423C24.4503 35.9321 24.5676 35.9761 24.6849 35.9761C24.8023 35.9761 24.9196 35.9312 25.0094 35.8423C25.1882 35.6635 25.1882 35.373 25.0094 35.1942L22.11 32.2948L25.0094 29.3954C25.1873 29.2157 25.1873 28.926 25.0085 28.7464Z" fill="url(#paint1_linear_112_25)"/>
<path d="M30.2023 35.8414C30.2921 35.9312 30.4095 35.9752 30.5268 35.9752C30.6441 35.9752 30.7615 35.9303 30.8513 35.8414L34.0743 32.6174C34.2531 32.4387 34.2531 32.1481 34.0743 31.9694L30.8513 28.7464C30.6726 28.5676 30.382 28.5676 30.2032 28.7464C30.0245 28.9251 30.0245 29.2157 30.2032 29.3945L33.1026 32.2939L30.2032 35.1933C30.0236 35.372 30.0236 35.6626 30.2023 35.8414Z" fill="url(#paint2_linear_112_25)"/>
<path d="M27.9345 28.9646L26.4027 35.4115C26.344 35.6581 26.4962 35.9056 26.7428 35.9634C26.7785 35.9716 26.8143 35.9762 26.8491 35.9762C27.0563 35.9762 27.2442 35.8341 27.2946 35.6242L28.8264 29.1773C28.885 28.9307 28.7329 28.6832 28.4863 28.6254C28.2415 28.5677 27.994 28.7189 27.9345 28.9646Z" fill="url(#paint3_linear_112_25)"/>
<path d="M12 41.9583C12 42.7164 12.6169 43.3333 13.375 43.3333H43.625C44.3831 43.3333 45 42.7164 45 41.9583V25.4583C45 25.2053 44.7947 25 44.5417 25C44.2887 25 44.0833 25.2053 44.0833 25.4583V41.9583C44.0833 42.2113 43.878 42.4167 43.625 42.4167H13.375C13.122 42.4167 12.9167 42.2113 12.9167 41.9583V25.4583C12.9167 25.2053 12.7113 25 12.4583 25C12.2053 25 12 25.2053 12 25.4583V41.9583Z" fill="url(#paint4_linear_112_25)"/>
<path d="M43.625 14H13.375C12.6169 14 12 14.6169 12 15.375V22.7083C12 23.4664 12.6169 24.0833 13.375 24.0833H43.625C44.3831 24.0833 45 23.4664 45 22.7083V15.375C45 14.6169 44.3831 14 43.625 14ZM44.0833 22.7083C44.0833 22.9613 43.878 23.1667 43.625 23.1667H13.375C13.122 23.1667 12.9167 22.9613 12.9167 22.7083V15.375C12.9167 15.122 13.122 14.9167 13.375 14.9167H43.625C43.878 14.9167 44.0833 15.122 44.0833 15.375V22.7083Z" fill="url(#paint5_linear_112_25)"/>
<path d="M15.6667 19.9583C16.1729 19.9583 16.5833 19.5479 16.5833 19.0417C16.5833 18.5354 16.1729 18.125 15.6667 18.125C15.1604 18.125 14.75 18.5354 14.75 19.0417C14.75 19.5479 15.1604 19.9583 15.6667 19.9583Z" fill="url(#paint6_linear_112_25)"/>
<path d="M18.4167 19.9583C18.9229 19.9583 19.3333 19.5479 19.3333 19.0417C19.3333 18.5354 18.9229 18.125 18.4167 18.125C17.9104 18.125 17.5 18.5354 17.5 19.0417C17.5 19.5479 17.9104 19.9583 18.4167 19.9583Z" fill="url(#paint7_linear_112_25)"/>
<path d="M21.1667 19.9583C21.6729 19.9583 22.0833 19.5479 22.0833 19.0417C22.0833 18.5354 21.6729 18.125 21.1667 18.125C20.6604 18.125 20.25 18.5354 20.25 19.0417C20.25 19.5479 20.6604 19.9583 21.1667 19.9583Z" fill="url(#paint8_linear_112_25)"/>
<defs>
<linearGradient id="paint0_linear_112_25" x1="58" y1="0" x2="0" y2="58" gradientUnits="userSpaceOnUse">
<stop stop-color="#0064AC"/>
<stop offset="1" stop-color="#B8D6EC"/>
</linearGradient>
<linearGradient id="paint1_linear_112_25" x1="21.0027" y1="32.3779" x2="25.1435" y2="32.3779" gradientUnits="userSpaceOnUse">
<stop stop-color="#0064AC"/>
<stop offset="1" stop-color="#B8D6EC"/>
</linearGradient>
<linearGradient id="paint2_linear_112_25" x1="30.0684" y1="32.3774" x2="34.2084" y2="32.3774" gradientUnits="userSpaceOnUse">
<stop stop-color="#0064AC"/>
<stop offset="1" stop-color="#B8D6EC"/>
</linearGradient>
<linearGradient id="paint3_linear_112_25" x1="26.3901" y1="32.3784" x2="28.839" y2="32.3784" gradientUnits="userSpaceOnUse">
<stop stop-color="#0064AC"/>
<stop offset="1" stop-color="#B8D6EC"/>
</linearGradient>
<linearGradient id="paint4_linear_112_25" x1="12" y1="34.375" x2="45" y2="34.375" gradientUnits="userSpaceOnUse">
<stop stop-color="#0064AC"/>
<stop offset="1" stop-color="#B8D6EC"/>
</linearGradient>
<linearGradient id="paint5_linear_112_25" x1="12" y1="19.1562" x2="45" y2="19.1563" gradientUnits="userSpaceOnUse">
<stop stop-color="#0064AC"/>
<stop offset="1" stop-color="#B8D6EC"/>
</linearGradient>
<linearGradient id="paint6_linear_112_25" x1="14.75" y1="19.0625" x2="16.5833" y2="19.0625" gradientUnits="userSpaceOnUse">
<stop stop-color="#0064AC"/>
<stop offset="1" stop-color="#B8D6EC"/>
</linearGradient>
<linearGradient id="paint7_linear_112_25" x1="17.5" y1="19.0625" x2="19.3333" y2="19.0625" gradientUnits="userSpaceOnUse">
<stop stop-color="#0064AC"/>
<stop offset="1" stop-color="#B8D6EC"/>
</linearGradient>
<linearGradient id="paint8_linear_112_25" x1="20.25" y1="19.0625" x2="22.0833" y2="19.0625" gradientUnits="userSpaceOnUse">
<stop stop-color="#0064AC"/>
<stop offset="1" stop-color="#B8D6EC"/>
</linearGradient>
</defs>
</svg>
