<svg width="33" height="11" viewBox="0 0 33 11" fill="none" xmlns="http://www.w3.org/2000/svg">
<path d="M31.625 0H1.375C0.616917 0 0 0.616917 0 1.375V8.70833C0 9.46642 0.616917 10.0833 1.375 10.0833H31.625C32.3831 10.0833 33 9.46642 33 8.70833V1.375C33 0.616917 32.3831 0 31.625 0ZM32.0833 8.70833C32.0833 8.96133 31.878 9.16667 31.625 9.16667H1.375C1.122 9.16667 0.916667 8.96133 0.916667 8.70833V1.375C0.916667 1.122 1.122 0.916667 1.375 0.916667H31.625C31.878 0.916667 32.0833 1.122 32.0833 1.375V8.70833Z" fill="url(#paint0_linear_111_41)"/>
<defs>
<linearGradient id="paint0_linear_111_41" x1="0" y1="5.15625" x2="33" y2="5.15625" gradientUnits="userSpaceOnUse">
<stop stop-color="#0064AC"/>
<stop offset="1" stop-color="#B8D6EC"/>
</linearGradient>
</defs>
</svg>
