<svg width="32" height="32" viewBox="0 0 32 32" fill="none" xmlns="http://www.w3.org/2000/svg">
<path d="M22.6317 15.6202C23.0221 14.3221 23.1183 13.046 23.1366 11.9235C24.1325 11.9064 25.1818 11.8297 26.2365 11.5795C28.109 11.1352 29.7265 10.2118 31.1818 8.75675C31.4696 8.46891 31.6281 8.08656 31.6281 7.67963C31.6281 7.27264 31.4696 6.89006 31.1818 6.6025C30.8939 6.31466 30.5116 6.15621 30.1047 6.15621C29.7565 6.15621 29.4267 6.27243 29.1583 6.48605L25.5138 2.84155C25.9882 2.24413 25.9501 1.37061 25.3979 0.818358C25.11 0.530514 24.7277 0.37207 24.3207 0.37207C23.9138 0.37207 23.5312 0.53052 23.2436 0.818358C21.9399 2.12205 21.0691 3.54467 20.5808 5.16773C20.1904 6.46586 20.0942 7.74198 20.0759 8.86448C19.0801 8.88157 18.0307 8.95823 16.9761 9.20848C15.1035 9.65281 13.4861 10.5762 12.0307 12.0312C10.5754 13.4865 9.65205 15.1042 9.20799 16.9765C8.95775 18.0312 8.88133 19.0805 8.864 20.0764C7.74143 20.0947 6.46531 20.1909 5.16725 20.5813C3.54418 21.0696 2.12137 21.9404 0.817869 23.2441C0.530025 23.532 0.371582 23.9143 0.371582 24.3212C0.371582 24.7282 0.530032 25.1108 0.817869 25.3984C1.11474 25.6955 1.50487 25.8439 1.89499 25.8439C2.2302 25.8439 2.56493 25.7336 2.84106 25.5143L6.48556 29.1588C6.27193 29.4271 6.15573 29.7572 6.15573 30.1051C6.15573 30.5121 6.31418 30.8947 6.60201 31.1823C6.89889 31.4791 7.28901 31.6278 7.67914 31.6278C8.06928 31.6278 8.45939 31.4794 8.75626 31.1823C10.2116 29.727 11.135 28.1093 11.579 26.237C11.8293 25.182 11.9059 24.1327 11.923 23.1366C14.5593 23.089 17.3373 22.6012 19.9693 19.9694C21.2727 18.666 22.1438 17.2433 22.6319 15.6203L22.6317 15.6202ZM26.9711 8.11337L23.8864 5.02868C24.1264 4.54309 24.4394 4.05775 24.8498 3.56918L28.4306 7.15C27.9438 7.55893 27.4594 7.87287 26.9711 8.11337ZM23.4911 6.025L25.974 8.50793C25.0641 8.78503 24.1264 8.86462 23.1208 8.87927C23.134 7.89902 23.2059 6.95637 23.4911 6.025ZM23.9393 1.51425C24.0411 1.41244 24.1766 1.35629 24.3207 1.35629C24.4647 1.35629 24.6002 1.41244 24.702 1.51425C24.9122 1.72445 24.9122 2.06673 24.702 2.27693C23.8392 3.13975 23.265 4.00812 22.8825 4.87287C22.8546 4.91657 22.8346 4.96369 22.8222 5.01252C22.2743 6.3204 22.1554 7.61921 22.1371 8.87802C21.9701 8.87607 21.8012 8.87338 21.6298 8.8707C21.443 8.86777 21.2526 8.86484 21.0597 8.86288C21.0973 6.58113 21.4579 3.99545 23.9393 1.51413L23.9393 1.51425ZM7.14933 28.4311L3.56876 24.8506C4.05705 24.4409 4.54264 24.1277 5.02895 23.8879L8.11295 26.9719C7.87223 27.46 7.55826 27.9444 7.14933 28.4312V28.4311ZM8.50726 25.9748L6.02533 23.4929C6.95576 23.208 7.89839 23.1347 8.87883 23.1215C8.86393 24.1269 8.78436 25.0649 8.50726 25.9748ZM1.51351 24.7028C1.41171 24.601 1.35556 24.4655 1.35556 24.3215C1.35556 24.1774 1.41171 24.0419 1.51351 23.9401C3.9947 21.4589 6.58039 21.098 8.86226 21.0607C8.86422 21.2538 8.86715 21.444 8.87008 21.6308C8.87276 21.8019 8.87545 21.9709 8.8774 22.1376C6.66746 22.1672 4.49065 22.4882 2.27615 24.7028C2.06594 24.913 1.72371 24.913 1.51351 24.7028ZM8.06039 30.4867C7.85018 30.697 7.5079 30.697 7.2977 30.4867C7.1959 30.3849 7.13974 30.2494 7.13974 30.1054C7.13974 29.9614 7.1959 29.8259 7.2977 29.724C8.16614 28.8556 8.74445 27.986 9.12826 27.1095C9.14804 27.0751 9.16366 27.039 9.17441 27.0016C9.77499 25.5705 9.86728 24.1213 9.86534 22.632C9.86534 22.6305 9.86559 22.6293 9.86559 22.6279C9.86559 22.6262 9.86534 22.6247 9.86534 22.623C9.86486 22.289 9.85973 21.953 9.85436 21.6149C9.81114 18.8383 9.76207 15.6914 12.7267 12.7268C15.3309 10.1225 18.0755 9.84373 20.5867 9.84373C20.9343 9.84373 21.2776 9.8491 21.6152 9.85422C23.4646 9.88303 25.2466 9.91062 27.0015 9.17429C27.0388 9.16354 27.075 9.14792 27.1094 9.12814C27.9856 8.74436 28.8555 8.16596 29.7239 7.29758C29.8257 7.19577 29.9612 7.13963 30.1052 7.13963C30.2493 7.13963 30.3848 7.19578 30.4866 7.29758C30.5884 7.39938 30.6446 7.53489 30.6446 7.67893C30.6446 7.82297 30.5884 7.95848 30.4866 8.06028C27.522 11.0249 24.3753 10.976 21.5985 10.9326C19.6317 10.9021 17.741 10.8728 15.8783 11.7624C15.8417 11.7753 15.8063 11.7922 15.7728 11.8139C15.0084 12.1936 14.2486 12.7304 13.4899 13.4892C12.7308 14.2483 12.1938 15.0083 11.8141 15.7729C11.7926 15.8059 11.776 15.841 11.7631 15.8772C11.0277 17.417 10.9201 18.9755 10.9223 20.5805C10.9223 20.582 10.922 20.5835 10.922 20.5852C10.922 20.5871 10.9223 20.5888 10.9223 20.5906C10.9228 20.9243 10.9279 21.26 10.9333 21.5979C10.9765 24.375 11.0256 27.5222 8.06071 30.4866L8.06039 30.4867ZM12.3922 16.903L15.098 19.6088C14.058 19.988 13.0067 20.0773 11.9081 20.0922C11.9247 18.9626 12.024 17.9181 12.3922 16.903ZM16.0528 19.1718L12.828 15.9469C13.0887 15.4784 13.4227 15.0124 13.8468 14.5429L17.4578 18.1539C16.9874 18.5785 16.5201 18.9116 16.0528 19.1718ZM18.1536 17.4582L14.5426 13.8471C15.0121 13.423 15.4781 13.0891 15.9466 12.8283L19.1722 16.0539C18.9119 16.5204 18.5787 16.9875 18.1536 17.4582ZM19.6092 15.0993L16.9026 12.3927C17.9178 12.0243 18.9622 11.9252 20.0918 11.9086C20.0769 13.007 19.9891 14.0581 19.6092 15.0993ZM11.9248 22.1531C11.9226 21.9599 11.9199 21.7698 11.917 21.5827C11.9143 21.4116 11.9116 21.2429 11.9097 21.0759C14.1204 21.0461 16.2962 20.7253 18.5109 18.5107C19.2658 17.7558 19.8 16.9965 20.1782 16.2392C20.2077 16.1965 20.2302 16.1504 20.2448 16.1023C20.9184 14.6838 21.0563 13.2731 21.0762 11.9094C21.2431 11.9116 21.4121 11.914 21.5835 11.9167C21.7702 11.9196 21.9604 11.9226 22.1535 11.9245C22.1162 14.2063 21.7554 16.792 19.2742 19.2733C16.7847 21.7623 14.2007 22.1163 11.9248 22.1529L11.9248 22.1531Z" fill="url(#paint0_linear_114_108)"/>
<defs>
<linearGradient id="paint0_linear_114_108" x1="0.872002" y1="16.5" x2="32" y2="16.5" gradientUnits="userSpaceOnUse">
<stop stop-color="#0064AC"/>
<stop offset="1" stop-color="#B8D6EC"/>
</linearGradient>
</defs>
</svg>
