<svg width="26" height="34" viewBox="0 0 26 34" fill="none" xmlns="http://www.w3.org/2000/svg">
<path d="M23.3787 31.0469C25.3212 28.4071 25.9932 25.8363 25.3703 23.4047C24.2247 18.9287 19.153 16.5801 18.9372 16.4824C18.9213 16.4748 18.9045 16.476 18.8884 16.4711C18.8621 16.4629 18.8368 16.455 18.8096 16.4525C18.7852 16.4501 18.7623 16.4525 18.7385 16.4544C18.7123 16.4568 18.6869 16.4596 18.6613 16.4675C18.6384 16.4745 18.618 16.4849 18.5966 16.4962C18.5734 16.5084 18.5514 16.5203 18.5304 16.5368C18.5102 16.5529 18.4941 16.5722 18.4773 16.5923C18.466 16.6057 18.451 16.6149 18.4416 16.6301C18.3903 16.7113 17.8761 17.5362 17.3805 18.7795L15.6163 15.863L15.6166 3.85983C16.0905 3.64377 16.4222 3.1683 16.4222 2.61444V2.23358C16.4222 1.47797 15.807 0.863037 15.0517 0.863037H7.24618C6.49057 0.863037 5.87564 1.47827 5.87564 2.23358V2.61444C5.87564 3.16865 6.20797 3.64444 6.68251 3.86046V6.06233L6.68221 6.06417L6.68251 6.066V8.8574L6.68221 8.85923L6.68251 8.86106V11.6525L6.68221 11.6543L6.68251 11.6561V14.4475L6.68221 14.4494L6.68251 14.4512V15.8626L0.656497 25.8259C-0.184597 27.3771 -0.148582 29.2072 0.752934 30.7212C1.65411 32.2346 3.24379 33.1379 5.00559 33.1379H17.29C19.0411 33.1379 20.6304 32.2315 21.5264 30.749C21.8685 30.9117 22.2277 31.0643 22.6037 31.2071L22.9922 32.4376C23.0453 32.6057 23.2003 32.7128 23.3676 32.7128C23.4069 32.7128 23.4466 32.707 23.486 32.6948C23.6929 32.6292 23.8082 32.4079 23.7429 32.2007L23.3787 31.0469ZM24.6089 23.6034C25.132 25.6514 24.6159 27.8353 23.0812 30.1042L22.4363 28.0614C22.4577 27.9986 22.4665 27.9339 22.4556 27.8704L23.9652 24.218C24.0483 24.0172 23.953 23.7871 23.7519 23.7041C23.5517 23.6214 23.321 23.716 23.238 23.9174L22.0429 26.8084C22.0127 26.6943 21.9764 26.5832 21.9422 26.4876L21.9343 26.4635L21.9318 26.4644L21.2513 24.3075C21.2727 24.2446 21.2815 24.1802 21.2705 24.1171L22.4363 21.2961C22.5193 21.0949 22.4241 20.8651 22.223 20.7821C22.0231 20.6994 21.7921 20.7943 21.7091 20.9955L20.8564 23.0576L19.9894 20.3098C19.9241 20.1028 19.7025 19.9878 19.4953 20.0528C19.2884 20.1184 19.173 20.3397 19.2384 20.5469L20.0755 23.2007L18.3024 22.0703C18.1199 21.9543 17.8761 22.0077 17.7592 22.1912C17.6423 22.3743 17.6963 22.6178 17.8798 22.7344L20.4444 24.3695L21.2599 26.955L18.7282 25.3409C18.5457 25.2241 18.3019 25.2781 18.185 25.4615C18.0681 25.6446 18.1221 25.8878 18.3049 26.0047L21.6286 28.1235L22.2951 30.2353C19.8503 29.1803 18.2701 27.6575 17.5991 25.6964C16.4296 22.2815 18.3208 18.4531 18.9278 17.3605C20.0356 17.94 23.7156 20.1058 24.6089 23.6034ZM5.82375 21.5611L5.88082 21.598C6.64833 22.0943 7.52144 22.3375 8.39089 22.3375C9.51058 22.3375 10.6239 21.9337 11.4967 21.144C12.5782 20.1658 14.1523 19.8858 15.5067 20.4308L15.8772 20.5797L16.5641 21.704C16.3548 23.0425 16.3648 24.5134 16.8543 25.945C17.3524 27.4013 18.2875 28.6336 19.6427 29.6343C19.1388 30.4598 18.2636 30.9533 17.291 30.9533H5.00582C4.02222 30.9533 3.1366 30.4488 2.6355 29.6016C2.13532 28.7658 2.10664 27.7547 2.547 26.9191L5.82375 21.5611ZM6.66297 2.23299C6.66297 1.91133 6.92481 1.6498 7.24616 1.6498H15.0519C15.3736 1.6498 15.6351 1.91164 15.6351 2.23299V2.61385C15.6351 2.93153 15.3794 3.19002 15.0632 3.19612H7.23432C6.91846 3.19002 6.66272 2.93184 6.66272 2.61385L6.66297 2.23299ZM17.2903 32.3502H5.00594C3.52398 32.3502 2.18734 31.5906 1.42961 30.318C0.671554 29.0451 0.641327 27.5058 1.33959 26.2171L7.41318 16.1756C7.45071 16.1143 7.47025 16.0438 7.47025 15.9718V14.842H10.1299C10.3474 14.842 10.5235 14.6659 10.5235 14.4483C10.5235 14.2307 10.3474 14.0547 10.1299 14.0547L7.46993 14.055V12.0469H10.1295C10.3471 12.0469 10.5232 11.8708 10.5232 11.6532C10.5232 11.4356 10.3471 11.2596 10.1295 11.2596H7.46993V9.25151H10.1295C10.3471 9.25151 10.5232 9.07542 10.5232 8.85783C10.5232 8.64024 10.3471 8.46415 10.1295 8.46415H7.46993V6.4561H10.1295C10.3471 6.4561 10.5232 6.28002 10.5232 6.06243C10.5232 5.84483 10.3471 5.66875 10.1295 5.66875L7.46993 5.66905V3.98358H14.8302V15.9719C14.8302 16.0439 14.8497 16.1141 14.8872 16.1757L17.0378 19.7317C16.9511 20.0005 16.8702 20.2828 16.7961 20.5736L16.4805 20.0573C16.4729 20.045 16.461 20.038 16.4521 20.0264C16.4354 20.0045 16.4177 19.984 16.396 19.9657C16.3746 19.948 16.3527 19.9343 16.3285 19.9218C16.3154 19.9147 16.3066 19.9038 16.2922 19.8983L15.8003 19.7002C14.1685 19.0431 12.2715 19.381 10.9681 20.5599C9.68115 21.7241 7.76497 21.8786 6.30779 20.9365L5.91228 20.681L5.90831 20.6795C5.90648 20.6783 5.90526 20.6759 5.90312 20.6749C5.87505 20.6582 5.84422 20.652 5.81432 20.6426C5.79662 20.6371 5.78045 20.6267 5.76274 20.6237C5.72704 20.6179 5.69194 20.6221 5.65654 20.6255C5.64189 20.627 5.62755 20.6243 5.6129 20.6273C5.57628 20.6356 5.54332 20.653 5.51006 20.6713C5.49876 20.6777 5.48595 20.6798 5.47496 20.6874C5.44383 20.7088 5.41942 20.7387 5.39501 20.7692C5.38677 20.7799 5.37487 20.7857 5.36754 20.7976L5.36632 20.8001C5.3651 20.8019 5.36266 20.8031 5.36175 20.8052L1.86198 26.5297C1.27971 27.6323 1.31602 28.9314 1.95811 30.0042C2.60173 31.0912 3.7403 31.74 5.00499 31.74H17.2901C18.5264 31.74 19.6385 31.119 20.2909 30.0768C20.4603 30.183 20.6361 30.2855 20.8164 30.3853C20.0575 31.6024 18.7436 32.3502 17.2903 32.3502Z" fill="url(#paint0_linear_114_98)"/>
<defs>
<linearGradient id="paint0_linear_114_98" x1="0.272683" y1="17.0001" x2="25.7272" y2="17.0001" gradientUnits="userSpaceOnUse">
<stop stop-color="#0064AC"/>
<stop offset="1" stop-color="#B8D6EC"/>
</linearGradient>
</defs>
</svg>
