<svg width="13" height="21" viewBox="0 0 13 21" fill="none" xmlns="http://www.w3.org/2000/svg">
<path d="M11.0223 10.5057C11.0008 14.1207 8.8141 17.5196 5.76194 19.3598H6.2816C3.83504 17.9962 2.27648 15.5715 1.67019 12.9088C1.04244 10.1599 1.45367 7.25879 2.99079 4.87772C3.83506 3.57895 4.96065 2.4963 6.28125 1.69537H5.7616C8.96543 3.49198 11.0004 6.84758 11.0223 10.5057C11.0223 11.1552 12.0398 11.1552 12.0398 10.5057C12.0183 6.50082 9.81011 2.77732 6.30309 0.829116C6.15169 0.742508 5.95666 0.742508 5.78343 0.829116C3.18554 2.38776 1.28048 4.96417 0.631221 7.9297C-0.0183464 10.9171 0.544612 14.2508 2.18987 16.8268C3.07743 18.234 4.28967 19.403 5.7616 20.2257C5.913 20.3123 6.10804 20.3123 6.28126 20.2257C9.63686 18.1907 12.0179 14.4672 12.0398 10.5053C12.0398 9.8561 11.0223 9.8561 11.0223 10.5053V10.5057Z" fill="url(#paint0_linear_114_72)"/>
<defs>
<linearGradient id="paint0_linear_114_72" x1="0.501074" y1="12.6361" x2="11.9196" y2="12.6361" gradientUnits="userSpaceOnUse">
<stop stop-color="#0064AC"/>
<stop offset="1" stop-color="#B8D6EC"/>
</linearGradient>
</defs>
</svg>
