<svg width="39" height="22" viewBox="0 0 39 22" fill="none" xmlns="http://www.w3.org/2000/svg">
<path d="M37.6966 9.72683C33.4069 8.38742 30.1208 4.91643 29.0177 0.559834V0.535161C29.0096 0.508565 28.9968 0.483251 28.9805 0.46082C28.9702 0.438069 28.9561 0.417241 28.9392 0.398656C28.9215 0.377827 28.9007 0.359563 28.8773 0.345143C28.8594 0.327519 28.8382 0.31342 28.8151 0.303807C28.7918 0.29099 28.7668 0.281376 28.7408 0.274968H25.8559H25.8563C25.8265 0.277852 25.7973 0.284581 25.7694 0.295476C25.7431 0.304448 25.7181 0.316945 25.6951 0.332646C25.6784 0.338414 25.6633 0.346746 25.6496 0.35732C24.8235 1.02414 23.9269 1.59771 22.9755 2.06841C21.7521 2.68588 20.407 3.02456 19.037 3.06016H19.0079C18.9915 3.05856 18.9749 3.05856 18.9585 3.06016C16.702 3.06016 14.4455 2.1716 12.1602 0.348951L12.1147 0.324277H12.1144C12.0903 0.307935 12.0641 0.29544 12.0359 0.287109C12.0096 0.275894 11.9817 0.268844 11.9532 0.266602H9.06864L8.99013 0.295438C8.96834 0.305371 8.94879 0.319473 8.93213 0.336777L8.86612 0.39061C8.85042 0.409836 8.83664 0.430664 8.82479 0.452454L8.78762 0.526794V0.551468C6.81214 7.99072 0.377771 9.70123 0.315428 9.71846C0.12637 9.76524 -0.00436262 9.93732 0.00140417 10.1318V14.8432C0.00140417 14.9528 0.0449834 15.0579 0.122212 15.1354C0.199757 15.213 0.304863 15.2566 0.414448 15.2566H8.76277V21.3317C8.76277 21.4413 8.80635 21.5467 8.88389 21.624C8.96144 21.7015 9.06654 21.7451 9.17613 21.7451H11.8956C12.0052 21.7451 12.1103 21.7015 12.1879 21.624C12.2654 21.5467 12.309 21.4413 12.309 21.3317V15.2566H25.4922V21.3317C25.4922 21.4413 25.5358 21.5467 25.613 21.624C25.6906 21.7015 25.7957 21.7451 25.9053 21.7451H28.6248C28.7344 21.7451 28.8395 21.7015 28.917 21.624C28.9946 21.5467 29.0381 21.4413 29.0381 21.3317V15.2566H37.5973C37.7072 15.2566 37.8123 15.213 37.8895 15.1354C37.9671 15.0579 38.0107 14.9528 38.0107 14.8432V10.1277C38.0107 9.93802 37.8808 9.77233 37.6966 9.72683ZM26.3188 20.9183V15.2563H28.2116V20.9183H26.3188ZM0.815317 14.4298V13.4791H37.1839V14.4295L0.815317 14.4298ZM9.58938 20.9183V15.2563H11.4822V20.9183H9.58938ZM11.4822 12.6529H9.58938V1.08073H11.4822V12.6529ZM28.2116 12.6529H26.3188V1.08073H28.2116V12.6529ZM25.4921 12.6529H23.5458V2.69265C24.2248 2.34433 24.8756 1.94379 25.4924 1.49392L25.4921 12.6529ZM22.7191 12.6529H19.4128V3.84601C20.5513 3.77743 21.6693 3.51467 22.7191 3.06895V12.6529ZM18.5864 12.6529H15.2801V3.1471C16.3331 3.57072 17.4521 3.80688 18.5864 3.84565V12.6529ZM14.4534 12.6529H12.3087V1.49417C12.9842 1.98892 13.7019 2.42309 14.4534 2.7919V12.6529ZM37.1835 12.6529H33.8775V8.79675C34.8987 9.49658 36.0113 10.0528 37.1838 10.4498L37.1835 12.6529ZM33.0508 8.19341V12.6529H29.038V3.06835C29.939 5.07746 31.3166 6.83637 33.0508 8.19309V8.19341ZM8.76218 3.08123V12.6526H4.94772V8.1063C6.59442 6.75245 7.90118 5.03111 8.76218 3.0809V3.08123ZM4.12134 8.7308V12.6529H0.81507V10.4335C1.99296 10.0272 3.10653 9.45399 4.12134 8.73072V8.7308Z" fill="url(#paint0_linear_113_46)"/>
<defs>
<linearGradient id="paint0_linear_113_46" x1="-8.82134e-09" y1="11" x2="38" y2="11" gradientUnits="userSpaceOnUse">
<stop stop-color="#0064AC"/>
<stop offset="1" stop-color="#B8D6EC"/>
</linearGradient>
</defs>
</svg>
