<svg width="31" height="31" viewBox="0 0 31 31" fill="none" xmlns="http://www.w3.org/2000/svg">
<path d="M30.2135 0.278745H11.9481C11.6676 0.278745 11.4408 0.50584 11.4408 0.786063V18.3708C11.0166 18.1442 10.6893 18.037 10.4262 18.037C10.0402 18.037 9.60413 18.2474 9.05653 18.6979C8.62676 19.0458 8.11919 19.5491 7.55046 20.1823C6.6398 19.4841 5.34146 18.6815 3.80863 18.2862C3.16687 18.1218 2.50094 18.2248 1.93272 18.5755C1.35642 18.9307 0.942788 19.5164 0.796995 20.1838C0.459119 21.7626 0.11392 24.7391 0.368484 29.931C0.274073 30.0705 0.250909 30.2485 0.316871 30.4081C0.395678 30.598 0.580981 30.7213 0.785916 30.7213H30.2139C30.4944 30.7213 30.7212 30.4945 30.7212 30.214V0.786011C30.7215 0.505788 30.4944 0.278442 30.2139 0.278442L30.2135 0.278745ZM12.4553 1.29362H29.7062V26.6624H26.1545V24.6329H27.6767C27.9572 24.6329 28.184 24.406 28.184 24.1256V21.0814C28.184 20.801 27.9572 20.5741 27.6767 20.5741H25.1399V18.0373C25.1399 17.7568 24.9131 17.53 24.6326 17.53H18.544C18.2636 17.53 18.0367 17.7568 18.0367 18.0373V20.5741H15.4999C15.2428 20.5741 15.0394 20.7677 15.0059 21.0155C14.9337 20.9543 14.8602 20.8919 14.7897 20.8329C14.7136 20.7692 14.6411 20.7093 14.5673 20.6481C14.4797 20.5754 14.3919 20.5024 14.3073 20.4329C14.2378 20.3757 14.1706 20.3216 14.1031 20.2667C14.0187 20.1982 13.9349 20.1303 13.8538 20.0653C13.7909 20.0149 13.7297 19.9666 13.6688 19.9183C13.5867 19.8533 13.5056 19.7896 13.4266 19.7282C13.3714 19.6854 13.3173 19.6438 13.2639 19.6028C13.1836 19.5411 13.1051 19.4817 13.0283 19.4241C12.9792 19.3873 12.9303 19.3508 12.8825 19.3155C12.805 19.2581 12.7297 19.2035 12.6557 19.1504C12.6139 19.1204 12.5716 19.09 12.5308 19.0613C12.5064 19.0441 12.4802 19.0245 12.4563 19.0079L12.4553 1.29362ZM24.1246 26.6624H20.0655V24.6329H25.1395V26.6624H24.1246ZM18.0363 26.6624H13.9772V24.6329H19.0512V26.6624H18.0363ZM16.0068 22.1059V21.5885H21.0805V23.618H16.0065L16.0068 22.1059ZM25.647 23.618H22.0953V21.5885H27.169V23.618H25.647ZM24.1248 20.5739H19.0512V18.5444H24.1248V20.5739ZM1.78861 20.3984C1.87673 19.9946 2.11718 19.6536 2.46537 19.4391C2.69473 19.2974 2.95104 19.2251 3.20961 19.2251C3.32518 19.2251 3.44149 19.2395 3.55605 19.2692C4.90099 19.6159 6.05786 20.3233 6.88421 20.9497C4.87308 23.3362 2.56759 26.6544 1.32642 28.492C1.19651 24.2575 1.49586 21.7702 1.78867 20.3987L1.78861 20.3984ZM11.4405 27.1698V29.7066H1.82728C1.84717 29.6764 1.86681 29.6467 1.88771 29.6153C1.93152 29.549 1.97633 29.4811 2.02367 29.4096C2.06873 29.3416 2.11732 29.2686 2.16566 29.1961C2.21778 29.1175 2.26939 29.0402 2.32504 28.9566C2.38093 28.873 2.4411 28.7834 2.50027 28.695C2.57983 28.5762 2.66166 28.4551 2.74675 28.3287C2.82959 28.2061 2.91292 28.0825 3.00054 27.9536C3.05895 27.8677 3.12063 27.7776 3.18106 27.6892C3.25156 27.586 3.32205 27.4828 3.39481 27.3765C3.45951 27.2824 3.52624 27.1857 3.5927 27.0892C3.66697 26.9815 3.74225 26.8727 3.81854 26.7627C3.88551 26.6665 3.95298 26.5693 4.02121 26.4717C4.10303 26.3546 4.18612 26.236 4.26996 26.1172C4.33744 26.0212 4.40465 25.9256 4.47314 25.8289C4.56931 25.6929 4.66725 25.556 4.76519 25.4187C4.82209 25.3389 4.87823 25.2599 4.93563 25.1798C5.08896 24.9663 5.24405 24.7521 5.40015 24.5383C5.4437 24.4786 5.48776 24.4192 5.53157 24.3596C5.65015 24.1982 5.76874 24.037 5.88808 23.8769C5.94347 23.8026 5.99886 23.7291 6.05449 23.6554C6.16301 23.5108 6.27152 23.3671 6.37978 23.2248C6.43794 23.1485 6.49585 23.073 6.55401 22.9975C6.66352 22.8552 6.77254 22.7147 6.8813 22.576C6.93493 22.5075 6.98881 22.4388 7.04219 22.3711C7.16329 22.218 7.28338 22.0687 7.40298 21.9214C7.44225 21.8731 7.48178 21.8235 7.5208 21.7759C7.68118 21.58 7.83979 21.3894 7.99564 21.2071C7.99589 21.2069 7.99589 21.2066 7.99614 21.2064C8.65002 20.4513 9.23713 19.8564 9.69713 19.4837C10.2175 19.0567 10.4175 19.0517 10.4258 19.0517C10.4545 19.0517 10.7324 19.0701 11.665 19.6962C12.4732 20.2393 13.5631 21.1044 14.9921 22.3375V23.618H13.47C13.1895 23.618 12.9626 23.8449 12.9626 24.1253V26.6622H11.948C11.6675 26.6624 11.4404 26.8892 11.4404 27.1697L11.4405 27.1698ZM12.4553 27.6772H17.529V29.7067H12.4553V27.6772ZM18.5439 27.6772H23.6176V29.7067H18.5439V27.6772ZM29.7059 29.7067H24.6322V27.6772H29.7059V29.7067Z" fill="url(#paint0_linear_115_121)"/>
<defs>
<linearGradient id="paint0_linear_115_121" x1="0.5" y1="15.5" x2="31" y2="15.5" gradientUnits="userSpaceOnUse">
<stop stop-color="#0064AC"/>
<stop offset="1" stop-color="#B8D6EC"/>
</linearGradient>
</defs>
</svg>
