<svg width="2" height="2" viewBox="0 0 2 2" fill="none" xmlns="http://www.w3.org/2000/svg">
<path d="M1.68023 0.733912C1.65001 0.713518 1.6193 0.69816 1.58908 0.688341C1.55837 0.672983 1.52815 0.663164 1.4924 0.657625C1.43147 0.642771 1.36072 0.642771 1.29476 0.657625C1.26455 0.663164 1.23384 0.672983 1.20362 0.688341C1.17291 0.69816 1.14269 0.713519 1.11197 0.733912C1.0868 0.749269 1.06137 0.774443 1.03619 0.794836C0.99062 0.845442 0.954871 0.896299 0.929695 0.962267C0.898979 1.0232 0.88916 1.08916 0.88916 1.15512C0.88916 1.29183 0.939765 1.41873 1.03619 1.51541C1.13212 1.61133 1.259 1.66244 1.39622 1.66244C1.53293 1.66244 1.65982 1.61133 1.7565 1.51541C1.80207 1.4643 1.83782 1.40866 1.86299 1.34772C1.88817 1.28679 1.90353 1.22083 1.90353 1.15487C1.90353 1.08891 1.88817 1.02319 1.86299 0.962011C1.83782 0.89605 1.80207 0.845189 1.7565 0.79458C1.73107 0.774439 1.7054 0.74927 1.68023 0.733912Z" fill="url(#paint0_linear_115_126)"/>
<defs>
<linearGradient id="paint0_linear_115_126" x1="0.896514" y1="1.15446" x2="1.91282" y2="1.15446" gradientUnits="userSpaceOnUse">
<stop stop-color="#0064AC"/>
<stop offset="1" stop-color="#B8D6EC"/>
</linearGradient>
</defs>
</svg>
