<svg width="36" height="28" viewBox="0 0 36 28" fill="none" xmlns="http://www.w3.org/2000/svg">
<path d="M10.5131 17.9351H8.64829L9.20598 15.4713C9.22971 15.3666 9.20459 15.2567 9.1376 15.1732C9.07061 15.0892 8.96901 15.0403 8.86182 15.0403H6.54959C6.38715 15.0403 6.24563 15.1512 6.20683 15.3089L5.04232 20.0409C5.01636 20.1461 5.04064 20.2575 5.10708 20.3429C5.17407 20.4283 5.2765 20.4782 5.38508 20.4782H7.10251V24.8401C7.10251 25.0056 7.21724 25.1485 7.37913 25.1845C7.40481 25.1904 7.43048 25.1929 7.45588 25.1929C7.59042 25.1929 7.71658 25.1156 7.77548 24.9891L10.833 18.4373C10.8841 18.3279 10.8754 18.2001 10.8107 18.0985C10.7459 17.9966 10.6337 17.9351 10.5131 17.9351ZM7.80841 23.249V20.1253C7.80841 19.9305 7.65043 19.7725 7.4556 19.7725H5.83556L6.82672 15.7462H8.42082L7.86313 18.2099C7.8394 18.3146 7.86452 18.4246 7.93151 18.5081C7.9985 18.5921 8.1001 18.6409 8.20729 18.6409H9.95938L7.80841 23.249ZM35.6482 3.91031H33.9076V1.66725C33.9076 0.92647 33.3047 0.323242 32.5634 0.323242C31.8221 0.323242 31.2194 0.926148 31.2194 1.66725V3.91031H29.2734V1.66725C29.2734 0.92647 28.6704 0.323242 27.9293 0.323242C27.1886 0.323242 26.5853 0.926148 26.5853 1.66725V3.91031H24.8448C24.6496 3.91031 24.4919 4.06829 24.4919 4.26312C24.4919 6.82744 26.1784 9.00319 28.5002 9.74483V12.1369C28.5002 12.3318 28.6579 12.4898 28.853 12.4898H29.8589V20.0426H15.8972V16.4182C15.8972 13.9597 13.8973 11.96 11.4391 11.96L4.46014 11.9597C2.00165 11.9597 0.00146484 13.9599 0.00146484 16.4182V23.3974C0.00146484 25.8559 2.00165 27.8561 4.46014 27.8561H11.4393C13.8978 27.8561 15.8975 25.8559 15.8975 23.3974V20.7485H30.2122C30.4073 20.7485 30.565 20.5905 30.565 20.3957V12.4899H31.7092C31.9043 12.4899 32.062 12.3319 32.062 12.1371V9.71958C34.3474 8.95729 36.0015 6.80162 36.0015 4.26331C36.0015 4.06847 35.8433 3.91031 35.6482 3.91031ZM15.1912 23.3969C15.1912 25.4661 13.5078 27.1495 11.4389 27.1495L4.45972 27.1498C2.39058 27.1498 0.707159 25.4664 0.707159 23.3972L0.70688 16.4177C0.70688 14.3489 2.3903 12.6655 4.45944 12.6655H11.4386C13.5075 12.6655 15.1909 14.3489 15.1909 16.4177L15.1912 23.3969ZM31.9254 1.66661C31.9254 1.31491 32.2115 1.02881 32.5632 1.02881C32.9151 1.02881 33.2015 1.31491 33.2015 1.66661V3.90967H31.9254L31.9254 1.66661ZM27.2913 1.66661C27.2913 1.31491 27.5774 1.02881 27.9291 1.02881C28.2811 1.02881 28.5669 1.31491 28.5669 1.66661V3.90967H27.2911L27.2913 1.66661ZM31.3554 11.784H29.2058V9.91864C29.5438 9.98061 29.8905 10.0177 30.2461 10.0177C30.6255 10.0177 30.9961 9.97837 31.3554 9.90832V11.784ZM30.2464 9.31177C29.8132 9.31177 29.395 9.25176 28.9937 9.14877C28.9834 9.14402 28.9713 9.14402 28.9605 9.14039C26.908 8.59862 25.3615 6.79858 25.2099 4.61583H35.283C35.1007 7.23625 32.9117 9.31177 30.2464 9.31177Z" fill="url(#paint0_linear_115_166)"/>
<defs>
<linearGradient id="paint0_linear_115_166" x1="0.00146516" y1="14.9987" x2="35.5015" y2="14.9987" gradientUnits="userSpaceOnUse">
<stop stop-color="#0064AC"/>
<stop offset="1" stop-color="#B8D6EC"/>
</linearGradient>
</defs>
</svg>
