<svg width="15" height="10" viewBox="0 0 15 10" fill="none" xmlns="http://www.w3.org/2000/svg">
<path d="M8.19841 1.67978C10.7531 2.32934 12.7662 4.4724 13.5239 6.96193C13.5672 6.78871 13.6105 6.63731 13.6538 6.46409C10.7964 9.49476 5.51422 9.14826 2.78613 6.13948C2.04995 5.33851 1.53067 4.36435 1.20565 3.34685C1.16235 3.52007 1.11904 3.67146 1.07574 3.84469C2.89418 1.89597 5.60018 1.05172 8.19816 1.67984C8.8259 1.83123 9.1072 0.857055 8.45798 0.705651C5.51393 -0.00870466 2.4182 0.92217 0.339892 3.10855C0.20998 3.23846 0.145193 3.43316 0.209981 3.60639C0.859548 5.6847 2.28829 7.50314 4.21484 8.54212C6.27133 9.64625 8.84739 9.90603 11.0774 9.21317C12.3328 8.82343 13.4588 8.13087 14.3678 7.17817C14.4978 7.04826 14.5625 6.85356 14.4978 6.68033C13.6317 3.86623 11.3587 1.4415 8.45798 0.705357C7.83023 0.532477 7.57042 1.50661 8.19816 1.67984L8.19841 1.67978Z" fill="url(#paint0_linear_114_74)"/>
<defs>
<linearGradient id="paint0_linear_114_74" x1="0.348443" y1="6.01836" x2="14.3756" y2="6.01836" gradientUnits="userSpaceOnUse">
<stop stop-color="#0064AC"/>
<stop offset="1" stop-color="#B8D6EC"/>
</linearGradient>
</defs>
</svg>
