<svg width="2" height="2" viewBox="0 0 2 2" fill="none" xmlns="http://www.w3.org/2000/svg">
<path d="M1.17361 0.702566C1.10764 0.727743 1.05678 0.763493 1.00618 0.809061C0.914278 0.905238 0.858887 1.03767 0.858887 1.16934C0.858887 1.30606 0.909493 1.43294 1.00592 1.52962C1.10209 1.6258 1.22898 1.67665 1.3662 1.67665C1.43216 1.67665 1.49788 1.66129 1.55905 1.63612C1.61998 1.61094 1.67537 1.57519 1.72648 1.52962C1.82266 1.43294 1.87351 1.30126 1.87351 1.16934C1.87351 1.03766 1.81762 0.905231 1.72648 0.809061C1.58424 0.667064 1.35588 0.621239 1.17361 0.702566Z" fill="url(#paint0_linear_115_125)"/>
<defs>
<linearGradient id="paint0_linear_115_125" x1="0.866243" y1="1.16957" x2="1.88281" y2="1.16957" gradientUnits="userSpaceOnUse">
<stop stop-color="#0064AC"/>
<stop offset="1" stop-color="#B8D6EC"/>
</linearGradient>
</defs>
</svg>
