<svg width="15" height="10" viewBox="0 0 15 10" fill="none" xmlns="http://www.w3.org/2000/svg">
<path d="M6.54136 0.706136C3.66211 1.4638 1.38915 3.86666 0.501591 6.68111C0.458286 6.85433 0.50159 7.04903 0.631502 7.17895C3.87865 10.6212 9.91877 10.2529 12.9928 6.78921C13.8155 5.88016 14.4 4.79752 14.7679 3.60685C14.8112 3.43364 14.7679 3.23894 14.638 3.10902C12.5815 0.900855 9.46427 -0.00853544 6.54171 0.706121C5.91396 0.857517 6.17379 1.83173 6.80153 1.68031C9.39942 1.05256 12.1052 1.89683 13.9236 3.82342C13.8803 3.6502 13.837 3.4988 13.7937 3.32558C13.2307 5.14402 11.9753 6.72449 10.3082 7.63354C8.51154 8.62921 6.23824 8.8242 4.28986 8.2398C3.16425 7.91519 2.16824 7.28745 1.34582 6.4432C1.38912 6.61641 1.43242 6.76781 1.47573 6.94103C2.23339 4.45151 4.24652 2.32997 6.80119 1.65888C7.42927 1.50715 7.16979 0.532871 6.54171 0.706121L6.54136 0.706136Z" fill="url(#paint0_linear_114_76)"/>
<defs>
<linearGradient id="paint0_linear_114_76" x1="0.648769" y1="6.00844" x2="14.637" y2="6.00844" gradientUnits="userSpaceOnUse">
<stop stop-color="#0064AC"/>
<stop offset="1" stop-color="#B8D6EC"/>
</linearGradient>
</defs>
</svg>
