<svg width="33" height="19" viewBox="0 0 33 19" fill="none" xmlns="http://www.w3.org/2000/svg">
<path d="M0 16.9583C0 17.7164 0.616917 18.3333 1.375 18.3333H31.625C32.3831 18.3333 33 17.7164 33 16.9583V0.458333C33 0.205333 32.7947 0 32.5417 0C32.2887 0 32.0833 0.205333 32.0833 0.458333V16.9583C32.0833 17.2113 31.878 17.4167 31.625 17.4167H1.375C1.122 17.4167 0.916667 17.2113 0.916667 16.9583V0.458333C0.916667 0.205333 0.711333 0 0.458333 0C0.205333 0 0 0.205333 0 0.458333V16.9583Z" fill="url(#paint0_linear_111_40)"/>
<defs>
<linearGradient id="paint0_linear_111_40" x1="0" y1="9.375" x2="33" y2="9.375" gradientUnits="userSpaceOnUse">
<stop stop-color="#0064AC"/>
<stop offset="1" stop-color="#B8D6EC"/>
</linearGradient>
</defs>
</svg>
